<svg width="758" height="680" viewBox="0 0 758 680" fill="none" xmlns="http://www.w3.org/2000/svg">
<path d="M389.08 582.41C579.662 582.41 734.159 561.947 734.159 536.705C734.159 511.463 579.662 491 389.08 491C198.497 491 44 511.463 44 536.705C44 561.947 198.497 582.41 389.08 582.41Z" fill="url(#paint0_radial_728_6)"/>
<path d="M269.997 462.84L283.033 473.957C283.033 473.957 290.8 513.85 283.033 513.145C275.265 512.44 240.671 488.433 240.671 488.433C240.671 488.433 238.555 460.237 253.913 460.766C269.261 461.295 269.997 462.84 269.997 462.84Z" fill="#F4A392" stroke="#F4A392" stroke-miterlimit="10" stroke-linecap="round" stroke-linejoin="round"/>
<path d="M484.605 472.194L510.022 454.896C510.022 454.896 540.738 455.954 540.738 469.02C540.738 482.087 537.213 486.318 537.213 486.318L486.379 515.623L484.605 472.194Z" fill="#F4A392" stroke="#F4A392" stroke-miterlimit="10" stroke-linecap="round" stroke-linejoin="round"/>
<path d="M380.118 161.851C380.118 161.851 343.843 143.714 329.336 192.079C314.828 240.435 331.068 247.798 329.336 273.681C327.552 300.457 323.259 312.102 323.259 312.102C323.259 312.102 357.231 303.111 360.933 298.206C363.702 294.535 364.822 282.755 365.216 277.041C365.32 275.496 364.604 274.023 363.318 273.163C360.332 271.172 354.058 263.892 344.165 237.832C344.165 237.822 342.35 164.879 380.118 161.851Z" fill="#303031" stroke="#303031" stroke-miterlimit="10" stroke-linecap="round" stroke-linejoin="round"/>
<path d="M346.599 248.492C341.911 258.167 332.392 246.086 331.935 231.267C331.49 216.604 344.027 227.337 344.027 227.337" fill="#F4A392"/>
<path d="M434.433 316.509C434.433 316.509 406.186 302.955 399.518 299.232C396.293 297.438 393.98 279.032 395.349 276.926C395.349 276.926 407.16 265.81 410.313 257.483C414.543 246.304 423.918 228.415 418.857 215.266C413.144 200.416 410.841 187.889 406.776 181.875C398.698 169.939 392.383 159.911 379.482 161.487C379.482 161.487 415.56 145.963 426.873 180.423C438.187 214.883 438.996 236.566 436.331 259.671C433.977 280.089 433.448 312.153 433.334 312.361" fill="#303031"/>
<path d="M434.433 316.509C434.433 316.509 406.186 302.955 399.518 299.232C396.293 297.438 393.98 279.032 395.349 276.926C395.349 276.926 407.16 265.81 410.313 257.483C414.543 246.304 423.918 228.415 418.857 215.266C413.144 200.416 410.841 187.889 406.776 181.875C398.698 169.939 392.383 159.911 379.482 161.487C379.482 161.487 415.56 145.963 426.873 180.423C438.187 214.883 438.996 236.566 436.331 259.671C433.977 280.089 433.448 312.153 433.334 312.361" stroke="#303031" stroke-miterlimit="10"/>
<path d="M414.607 228.943C414.607 228.943 425.941 216.603 426.698 232.874C427.404 247.972 412.948 262.947 412.035 250.098" fill="#F4A392"/>
<path d="M363.08 275.06C363.08 275.06 362.675 292.989 357.843 298.434C353.011 303.878 315.378 312.371 307.932 315.596L308.285 319.868C309.249 321.642 303.514 319.868 305.464 320.397C363.941 336.44 376.094 343.865 403.326 333.038C443.261 317.152 451.09 318.811 451.09 318.811C443.634 315.586 405.379 304.614 400.547 299.18C395.714 293.736 395.31 275.806 395.31 275.806" fill="#F4A392"/>
<path d="M451.371 316.447C463.431 321.808 537.172 422.2 532.443 433.099C528.503 442.173 551.244 472.547 547.003 484.462C542.762 496.377 534.289 499.021 529.789 498.181C525.288 497.341 532.962 486.048 532.962 486.048C522.633 445.014 492.849 465.671 492.849 465.671C492.58 454.025 481.869 454.285 481.869 454.285L344.186 470.701L275.35 463.556C239.874 456.411 244.634 501.686 238.287 497.974C231.93 494.272 234.844 472.287 234.844 472.287C226.901 458.786 233.517 454.814 234.844 448.986C236.172 443.158 250.202 411.384 250.202 411.384C260.002 357.636 307.922 315.596 307.922 315.596C307.922 315.596 308.015 313.325 320.324 312.537C332.634 311.749 371.262 326.931 379.485 325.344C387.709 323.757 427.623 311.448 427.623 311.448L451.371 316.447Z" fill="#FBC172" stroke="#FBC172" stroke-miterlimit="10" stroke-linecap="round" stroke-linejoin="round"/>
<path d="M278.894 417.47C278.894 417.47 266.108 371.396 286.485 364.521C304.892 358.299 356.638 359.969 368.024 360.58C369.258 360.643 378.539 361.773 379.763 361.597C388.329 360.332 447.542 374.383 455.838 378.645C468.904 385.354 372.349 380.937 372.349 380.937L286.744 382.658C286.734 382.658 281.445 381.995 278.894 417.47Z" fill="#F9B76C"/>
<path d="M281.301 407.63C281.301 407.63 272.59 376.24 286.476 371.543C299.023 367.301 334.281 368.442 342.038 368.857C342.878 368.898 349.204 369.666 350.033 369.552C355.872 368.691 396.222 378.262 401.873 381.166C410.771 385.739 344.973 382.732 344.973 382.732L286.631 383.904C286.642 383.904 283.033 383.458 281.301 407.63Z" fill="#F6A457"/>
<path d="M474.465 530.266H292.305C285.461 530.266 279.861 524.666 279.861 517.822V394.439C279.861 387.595 285.461 381.995 292.305 381.995H474.465C481.309 381.995 486.909 387.595 486.909 394.439V517.822C486.909 524.666 481.309 530.266 474.465 530.266Z" fill="#E2ECF9" stroke="#E3ECF9" stroke-miterlimit="10" stroke-linecap="round" stroke-linejoin="round"/>
<path d="M478.354 530.267H288.417C283.709 530.267 279.861 526.42 279.861 521.712C279.861 517.004 283.709 513.156 288.417 513.156H478.354C483.062 513.156 486.909 517.004 486.909 521.712C486.909 526.409 483.052 530.267 478.354 530.267Z" fill="#D0E0F1" stroke="#D0E0F1" stroke-miterlimit="10" stroke-linecap="round" stroke-linejoin="round"/>
<path d="M416.869 222.503C416.869 255.055 400.225 281.436 379.692 281.436C373.843 281.436 368.316 279.3 363.39 275.484C351.029 265.912 342.516 245.784 342.516 222.503C342.516 189.952 359.16 163.57 379.692 163.57C400.225 163.57 416.869 189.952 416.869 222.503Z" fill="#F4A392" stroke="#F4A392" stroke-miterlimit="10"/>
<path d="M380.116 174.532C380.116 174.532 377.358 207.696 373.832 212.31C371.084 215.909 360.175 217.993 346.704 234.865C345.864 235.923 344.163 235.435 343.987 234.098L343.116 227.616C343.033 227.015 343.313 226.434 343.821 226.113L352.605 220.586C352.646 220.565 352.677 220.544 352.719 220.523L365.526 213.949C365.64 213.886 365.754 213.814 365.847 213.731C366.957 212.725 368.408 211.491 369.528 210.267C369.622 210.164 369.705 210.05 369.767 209.915L376.808 196.237C377.14 195.573 377.358 194.868 377.462 194.132L380.116 174.532Z" fill="#F18A77"/>
<path d="M380.53 162.565C380.53 162.565 380.229 198.228 395.94 210.319C411.661 222.411 424.696 230.873 429.964 247.797C429.964 247.797 438.83 221.125 431.581 215.577C424.322 210.039 406.953 168.082 403.302 169.13C403.302 169.13 385.082 158.002 380.53 162.565Z" fill="#303031" stroke="#303031" stroke-miterlimit="10" stroke-linecap="round" stroke-linejoin="round"/>
<path d="M378.623 161.477C379.816 161.363 380.874 162.254 380.956 163.447C380.956 163.457 380.956 163.478 380.956 163.488C381.537 172.676 382.46 208.722 361.73 217.133C342.65 224.879 333.182 237.219 331.927 252.37C330.724 266.971 345.667 285.233 343.946 293.809C343.832 294.379 343.044 294.483 342.784 293.954C338.73 285.886 314.931 234.098 335.111 213.959C337.786 211.294 339.331 206.617 339.85 202.874C341.789 188.656 352.314 163.924 378.623 161.477Z" fill="#303032" stroke="#303031" stroke-miterlimit="10" stroke-linecap="round" stroke-linejoin="round"/>
<path d="M405.648 223.644L403.263 222.607C402.444 222.348 401.645 222.016 400.816 221.819C399.177 221.352 397.497 221.135 395.848 221.135C394.179 221.176 392.613 221.632 391.047 221.964C389.46 222.317 387.905 222.835 386.246 223.509H386.235C386.184 223.53 386.121 223.509 386.101 223.447C386.09 223.416 386.09 223.374 386.111 223.354C387.086 221.746 388.703 220.658 390.425 219.973C392.177 219.258 394.117 219.309 395.921 219.465C397.746 219.683 399.499 220.139 401.158 220.823C401.987 221.155 402.755 221.622 403.543 222.016C404.3 222.472 405.026 222.97 405.752 223.457C405.804 223.489 405.814 223.551 405.783 223.603C405.762 223.644 405.7 223.665 405.648 223.644Z" fill="#303032"/>
<path d="M351.507 224.05C352.233 223.562 352.958 223.075 353.715 222.608C354.504 222.214 355.271 221.747 356.101 221.416C357.749 220.731 359.512 220.275 361.337 220.057C363.152 219.902 365.081 219.86 366.834 220.565C368.565 221.25 370.173 222.339 371.147 223.946C371.179 223.998 371.158 224.06 371.116 224.091C371.085 224.112 371.054 224.112 371.023 224.101H371.013C369.353 223.427 367.798 222.909 366.211 222.556C364.645 222.225 363.08 221.768 361.41 221.727C359.761 221.727 358.081 221.945 356.443 222.411C355.613 222.598 354.825 222.94 353.995 223.199L351.61 224.236H351.6C351.548 224.257 351.486 224.236 351.465 224.184C351.444 224.133 351.465 224.081 351.507 224.05Z" fill="#303032"/>
<path d="M376.529 249.57C376.529 249.57 379.91 253.749 383.705 249.477" stroke="#D85843" stroke-miterlimit="10" stroke-linecap="round" stroke-linejoin="round"/>
<path d="M389.264 280.743C385.499 282.236 381.507 283.346 377.566 282.651C377.566 282.651 379.672 282.184 383.674 281.23C395.818 278.316 414.836 240.175 413.685 228.032C413.488 225.906 414.09 227.773 415.904 229.38C416.081 229.535 415.967 239.449 412.047 251.852C411.642 253.127 411.124 254.372 410.543 255.585L406.841 263.238C404.56 268.07 399.592 274.127 393.619 278.492C392.489 279.322 390.944 280.079 390.757 280.162L389.264 280.743Z" fill="#F18A77"/>
<path d="M362.592 286.166C362.592 286.166 372.371 295.395 383.259 292.772C394.137 290.148 395.371 283.542 395.371 283.542L394.635 277.268C394.635 277.268 388.019 281.883 380.127 282.059C378.468 282.09 377.462 281.987 376.177 281.81C375.264 281.686 374.268 281.593 372.796 281.168C371.033 280.659 370.089 280.628 363.67 276.584L362.592 286.166Z" fill="#F18A77"/>
<path d="M494.965 465.774C494.965 465.774 521.595 463.72 525.826 492.134L530.15 489.843L532.442 485.871C532.442 485.871 527.06 456.658 503.23 461.356C502.234 461.553 501.042 461.719 500.243 462.186C499.756 462.466 499.351 462.839 498.957 463.098C497.744 463.866 496.572 464.757 494.965 465.774Z" fill="#F18A77"/>
<path d="M277.808 470.026C277.808 470.026 254.973 466.21 250.731 494.634L246.822 492.011L243.576 489.625C243.576 489.625 246.221 461.896 269.605 463.441C270.611 463.503 270.766 464.54 271.575 464.997C272.063 465.277 273.359 466.594 273.763 466.853C274.966 467.62 276.2 469.01 277.808 470.026Z" fill="#F18A77"/>
<path d="M415.945 316.157C415.945 316.157 445.427 318.096 458.836 349.517C458.836 349.517 501.726 390.645 509.846 406.708C517.966 422.771 527.672 451.569 532.442 463.38C537.212 475.192 534.734 485.79 534.734 485.79C534.734 485.79 531.965 493.764 534.34 495.009C536.684 496.243 545.591 491.13 546.825 482.347C546.825 482.347 546.96 477.784 545.239 472.464C542.055 462.633 534.827 448.852 532.442 442.453C531.146 438.969 530.752 434.406 532.048 430.715C532.618 429.086 521.657 407.714 516.908 402.124C513.558 398.184 503.883 381.716 491.844 365.414C477.222 345.608 460.422 325.614 460.422 325.614L451.162 316.862L444.878 315.669L427.601 312.092L415.945 316.157Z" fill="#F6A456"/>
<path d="M492.116 457.137C492.21 457.251 492.303 457.375 492.386 457.499C493.641 459.252 495.777 460.144 497.872 459.605C505.286 457.697 520.022 454.689 526.617 458.962C526.617 458.962 505.152 448.975 493.506 452.605C491.598 453.196 490.851 455.581 492.116 457.137Z" fill="#F9B76C"/>
<path d="M277.983 456.432C277.869 456.536 277.766 456.639 277.662 456.743C276.158 458.298 273.918 458.858 271.927 458.018C264.876 455.032 250.741 449.899 243.586 453.145C243.586 453.145 266.296 446.435 277.278 451.734C279.072 452.616 279.466 455.084 277.983 456.432Z" fill="#F6A456"/>
<path d="M241.388 465.504C240.175 466.645 239.407 468.179 239.138 469.818C237.904 477.16 234.606 498.615 239.978 488.629C246.417 476.683 244.903 469.932 246.646 466.25C248.491 462.362 245.65 461.48 241.388 465.504Z" fill="#F9B76C"/>
<path d="M343.926 512.44C343.926 512.44 397.84 453.953 419.917 441.042C445.075 426.327 446.392 412.711 474.37 399.116L486.016 392.853L485.57 514.379L478.425 512.346L343.926 512.44Z" fill="#DCE7F7"/>
<path d="M342.131 516.277L341.104 517.282C336.697 521.617 339.777 529.115 345.958 529.115H477.73C479.804 529.115 481.784 528.192 483.091 526.574C485.009 524.189 486.658 520.393 482.915 516.391C481.639 515.022 479.814 514.296 477.947 514.296H346.974C345.169 514.296 343.427 515.011 342.131 516.277Z" fill="#DCE7F6"/>
<path d="M340.99 239.615L341.571 243.235C341.685 243.94 340.969 244.51 340.316 244.22C338.553 243.442 336.272 241.772 339.497 239.055C340.036 238.609 340.876 238.921 340.99 239.615Z" fill="#D85843"/>
<path d="M418.206 240.206L417.667 243.566C417.543 244.354 418.351 244.945 419.067 244.614C420.778 243.815 422.8 242.197 419.814 239.605C419.243 239.107 418.331 239.449 418.206 240.206Z" fill="#D85843"/>
<path d="M405.835 244.778C405.835 246.271 403.896 248.812 400.463 248.812C397.031 248.812 395.361 246.271 395.361 244.778C395.361 243.285 397.031 240.744 400.463 240.744C403.896 240.744 405.835 243.285 405.835 244.778Z" fill="#EE9689"/>
<path d="M364.073 244.778C364.073 246.271 362.134 248.812 358.702 248.812C355.269 248.812 353.6 246.271 353.6 244.778C353.6 243.285 355.269 240.744 358.702 240.744C362.134 240.744 364.073 243.285 364.073 244.778Z" fill="#ED9588"/>
<path d="M384.534 273.265C384.534 274.758 383.455 275.681 380.023 275.681C376.59 275.681 375.709 274.758 375.709 273.265C375.709 271.772 376.59 270.849 380.023 270.849C383.445 270.849 384.534 271.772 384.534 273.265Z" fill="#F18A77"/>
<path d="M371.374 186.842C371.81 186.697 372.225 187.08 372.131 187.516C371.354 191.021 368.46 202.895 366.417 205.497C364.644 207.748 356.203 215.93 348.135 220.451C344.64 222.411 342.432 224.07 341.063 225.325C340.606 225.75 339.891 225.252 340.129 224.682C341.799 220.627 345.532 215.276 348.135 213.223C354.492 208.214 361.243 199.908 362.456 197.492C363.431 195.532 367.403 188.128 371.374 186.842Z" fill="#4B4A4A" stroke="#4B4A4A" stroke-width="2" stroke-miterlimit="10" stroke-linecap="round" stroke-linejoin="round"/>
<path d="M396.762 205.02C396.762 205.02 403.803 215.753 409.558 218.605C415.314 221.456 414.909 217.423 414.909 217.423C414.909 217.423 410.637 213.389 405.991 208.888C405.908 208.805 405.825 208.722 405.752 208.639C404.705 207.498 396.399 198.508 396.762 205.02Z" fill="#4B4A4A"/>
<path d="M329.106 309.717C329.106 309.717 359.552 318.459 373.054 320.709L395.37 320.574C394.572 319.755 388.879 325.158 377.254 324.857C373.915 324.774 368.751 323.426 364.717 322.296C351.381 318.562 331.076 313.17 321.826 311.832L329.106 309.717Z" fill="#F18A77"/>
<path d="M397.984 161.922C397.984 161.922 416.682 177.882 420.995 175.808C425.309 173.734 400.691 157.691 397.984 161.922Z" fill="#4B4A4A"/>
<path d="M370.171 234.719C370.586 234.46 370.794 233.962 370.711 233.485C370.379 231.504 369.238 226.589 366.303 226.527C365.401 226.506 364.509 226.309 363.607 226.33C360.486 226.402 357.945 226.216 355.01 230.384L353.175 233.547C352.936 233.952 353.092 234.47 353.507 234.678C355.913 235.839 363.566 238.919 370.171 234.719Z" fill="#FAEFEF"/>
<path d="M363.658 235.001C365.657 235.001 367.277 233.506 367.277 231.661C367.277 229.817 365.657 228.322 363.658 228.322C361.659 228.322 360.039 229.817 360.039 231.661C360.039 233.506 361.659 235.001 363.658 235.001Z" fill="#262D1D" stroke="#262D1D" stroke-width="0.25" stroke-miterlimit="10"/>
<path d="M363.907 232.947C364.617 232.947 365.193 232.371 365.193 231.661C365.193 230.951 364.617 230.375 363.907 230.375C363.197 230.375 362.621 230.951 362.621 231.661C362.621 232.371 363.197 232.947 363.907 232.947Z" fill="#2F2F31" stroke="#2F2F31" stroke-miterlimit="10"/>
<path d="M365.817 231.029C366.378 231.029 366.833 230.574 366.833 230.012C366.833 229.451 366.378 228.996 365.817 228.996C365.256 228.996 364.801 229.451 364.801 230.012C364.801 230.574 365.256 231.029 365.817 231.029Z" fill="#FAEFEF"/>
<path d="M361.67 233.372C362.019 233.372 362.302 233.088 362.302 232.739C362.302 232.39 362.019 232.106 361.67 232.106C361.32 232.106 361.037 232.39 361.037 232.739C361.037 233.088 361.32 233.372 361.67 233.372Z" fill="#FAEFEF"/>
<path d="M387.087 234.524C386.672 234.264 386.464 233.767 386.547 233.29C386.879 231.309 388.02 226.394 390.955 226.331C391.857 226.311 392.749 226.114 393.651 226.134C396.772 226.207 399.313 226.02 402.248 230.189L404.083 233.352C404.322 233.756 404.166 234.275 403.751 234.482C401.356 235.633 393.692 238.724 387.087 234.524Z" fill="#FAEFEF"/>
<path d="M394.406 234.937C396.405 234.937 398.025 233.442 398.025 231.598C398.025 229.754 396.405 228.259 394.406 228.259C392.407 228.259 390.787 229.754 390.787 231.598C390.787 233.442 392.407 234.937 394.406 234.937Z" fill="#262D1D" stroke="#262D1D" stroke-width="0.25" stroke-miterlimit="10"/>
<path d="M394.157 232.884C394.867 232.884 395.443 232.309 395.443 231.598C395.443 230.888 394.867 230.312 394.157 230.312C393.447 230.312 392.871 230.888 392.871 231.598C392.871 232.309 393.447 232.884 394.157 232.884Z" fill="#2F2F31" stroke="#2F2F31" stroke-miterlimit="10"/>
<path d="M392.251 230.956C392.812 230.956 393.267 230.501 393.267 229.94C393.267 229.379 392.812 228.924 392.251 228.924C391.689 228.924 391.234 229.379 391.234 229.94C391.234 230.501 391.689 230.956 392.251 230.956Z" fill="#FAEFEF"/>
<path d="M396.398 233.31C396.748 233.31 397.031 233.027 397.031 232.678C397.031 232.328 396.748 232.045 396.398 232.045C396.049 232.045 395.766 232.328 395.766 232.678C395.766 233.027 396.049 233.31 396.398 233.31Z" fill="#FAEFEF"/>
<path d="M365.742 260.53C365.742 260.53 367.443 260.593 368.221 261.318C369.475 262.49 388.805 262.749 391.595 261.318C393.243 260.468 393.627 260.873 393.627 260.873C393.627 260.873 391.398 262.615 390.672 263.029C390.464 263.154 389.811 263.973 388.556 264.969C385.227 267.623 380.831 268.681 375.252 267.177C372.535 266.441 370.087 264.782 368.055 262.521C367.806 262.252 367.547 261.992 367.267 261.754L365.742 260.53Z" fill="#EE6F5A"/>
<path d="M367.104 261.331C369.032 262.244 371.054 262.949 373.097 263.498C375.151 264.027 377.245 264.39 379.361 264.473C381.476 264.629 383.592 264.39 385.656 263.955L387.201 263.581L388.694 263.032C388.943 262.938 389.202 262.855 389.441 262.762L390.156 262.41L391.598 261.704C389.793 262.835 387.875 263.872 385.759 264.359C383.675 264.888 381.497 265.137 379.34 265.012C377.194 264.878 375.047 264.525 372.994 263.903C370.94 263.249 368.939 262.43 367.104 261.331Z" fill="#D85843"/>
<g filter="url(#filter0_d_728_6)">
<path d="M516.835 203.759C548.626 174.867 595.976 171.284 634.532 187.097C634.924 186.982 635.317 186.868 635.709 186.753C622.808 180.375 609.907 173.997 597.055 167.52C594.255 166.118 596.386 161.765 599.198 163.142C614.023 170.401 628.775 177.808 643.563 185.141C645.413 186.047 645.361 189.088 643.264 189.686C642.222 190.003 641.167 190.284 640.125 190.601C640.405 191.965 639.63 193.61 637.996 193.637C634.027 193.687 630.195 194.018 626.438 194.57C619.375 196.631 612.298 198.654 605.235 200.714C602.169 201.605 600.749 197.322 603.64 196.04C610.794 192.92 617.981 190.858 625.42 189.718C625.812 189.603 626.242 189.476 626.634 189.362C591.003 176.882 549.016 181.19 519.991 206.93C490.209 233.342 480.284 278.031 497.591 313.946C498.077 314.951 496.326 315.842 495.815 314.825C476.576 278.422 486.532 231.296 516.835 203.759Z" fill="#FFC458"/>
<path d="M246.048 203.759C214.256 174.867 166.907 171.284 128.351 187.097C127.958 186.982 127.566 186.868 127.174 186.753C140.075 180.375 152.976 173.997 165.828 167.52C168.628 166.118 166.497 161.765 163.685 163.142C148.86 170.401 134.108 177.808 119.32 185.141C117.47 186.047 117.522 189.088 119.619 189.686C120.661 190.003 121.716 190.284 122.758 190.601C122.478 191.965 123.253 193.61 124.887 193.637C128.856 193.687 132.688 194.018 136.444 194.57C143.508 196.631 150.584 198.654 157.648 200.714C160.714 201.605 162.134 197.322 159.243 196.04C152.089 192.92 144.902 190.858 137.463 189.718C137.07 189.603 136.641 189.476 136.249 189.362C171.88 176.882 213.866 181.19 242.891 206.93C272.673 233.342 282.598 278.031 265.292 313.946C264.806 314.951 266.557 315.842 267.068 314.825C286.307 278.422 276.351 231.296 246.048 203.759Z" fill="#FFC458"/>
<path d="M335.731 85.9337C333.115 56.1681 351.062 28.4415 376.047 13.7483C376.149 13.4829 376.251 13.2173 376.353 12.9519C367.391 17.4106 358.428 21.8693 349.432 26.2596C347.477 27.2199 345.964 24.2075 347.91 23.2301C358.17 18.0769 368.481 13.0264 378.766 7.92458C380.046 7.28151 381.708 8.59009 381.157 10.0031C380.894 10.7139 380.605 11.4162 380.342 12.127C381.215 12.5458 381.8 13.6669 381.127 14.5834C379.484 16.8021 378.054 19.0634 376.779 21.3759C374.946 26.1545 373.088 30.9245 371.256 35.7031C370.458 37.7756 367.489 36.7591 367.996 34.6183C369.28 29.3436 371.163 24.4965 373.663 19.8972C373.765 19.6317 373.875 19.3405 373.977 19.075C352.068 33.5518 336.78 58.6138 338.815 85.5204C340.904 113.129 361.471 137.436 388.643 142.971C389.404 143.125 389.16 144.469 388.382 144.324C360.127 139.654 338.223 114.304 335.731 85.9337Z" fill="#FFC458"/>
<path d="M666.141 529.6C707.705 518.741 736.561 481.03 744.367 440.095C744.677 439.828 744.987 439.562 745.297 439.296C743.596 453.587 741.896 467.877 740.304 482.182C739.949 485.293 744.76 485.884 745.142 482.776C747.155 466.393 749.005 449.99 750.936 433.597C751.187 431.552 748.612 429.935 746.965 431.366C746.13 432.065 745.319 432.796 744.484 433.496C743.495 432.516 741.694 432.267 740.779 433.621C738.57 436.92 736.2 439.949 733.686 442.794C728.103 447.587 722.544 452.411 716.961 457.203C714.541 459.286 717.353 462.814 720.007 461.092C726.527 456.802 732.178 451.907 737.195 446.297C737.506 446.031 737.846 445.741 738.157 445.475C729.156 482.14 702.621 514.962 665.209 525.223C626.82 535.752 583.962 519.666 563.322 485.556C562.746 484.6 561.044 485.581 561.617 486.564C581.609 522.559 626.526 539.95 666.141 529.6Z" fill="#FFC458"/>
<path d="M92.3412 531.6C50.7769 520.741 21.9211 483.03 14.1158 442.095C13.8056 441.828 13.4954 441.562 13.1852 441.296C14.886 455.587 16.5869 469.877 18.1784 484.182C18.533 487.293 13.7226 487.884 13.3407 484.776C11.3272 468.393 9.47774 451.99 7.54628 435.597C7.29502 433.552 9.8707 431.935 11.517 433.366C12.3521 434.065 13.1632 434.796 13.9984 435.496C14.9878 434.516 16.7883 434.267 17.7038 435.621C19.9126 438.92 22.2825 441.949 24.7963 444.794C30.3794 449.587 35.9384 454.411 41.5215 459.203C43.9415 461.286 41.129 464.814 38.4759 463.092C31.9558 458.802 26.3046 453.907 21.287 448.297C20.9769 448.031 20.636 447.741 20.3259 447.475C29.3266 484.14 55.8614 516.962 93.2738 527.223C131.662 537.752 174.521 521.666 195.16 487.556C195.736 486.6 197.438 487.581 196.865 488.564C176.874 524.559 131.956 541.95 92.3412 531.6Z" fill="#FFC458"/>
<path d="M297.448 633.529C269.308 649.596 233.802 644.462 207.931 626.483C207.623 626.503 207.315 626.523 207.007 626.543C215.487 633.36 223.967 640.177 232.395 647.058C234.233 648.551 231.954 651.408 230.104 649.932C220.348 642.15 210.669 634.271 200.952 626.441C199.735 625.47 200.267 623.238 201.911 623.142C202.731 623.079 203.555 623.046 204.375 622.983C204.39 621.932 205.228 620.848 206.438 621.096C209.374 621.711 212.254 622.096 215.114 622.306C220.659 621.947 226.207 621.618 231.751 621.26C234.157 621.107 234.509 624.495 232.169 624.966C226.385 626.09 220.75 626.429 215.077 626.048C214.769 626.068 214.432 626.091 214.124 626.111C238.379 641.154 270.047 644.873 295.635 630.675C321.89 616.106 336.466 584.811 329.532 555.51C329.337 554.69 330.773 554.321 330.985 555.154C339.265 585.131 324.27 618.216 297.448 633.529Z" fill="#FFC458"/>
<path d="M473.161 633.306C501.301 649.373 536.807 644.24 562.678 626.26C562.986 626.28 563.294 626.3 563.603 626.32C555.122 633.137 546.642 639.954 538.214 646.836C536.377 648.328 538.655 651.185 540.506 649.709C550.262 641.928 559.94 634.049 569.657 626.219C570.874 625.248 570.343 623.016 568.699 622.919C567.878 622.857 567.055 622.823 566.234 622.76C566.22 621.709 565.381 620.625 564.171 620.873C561.236 621.488 558.356 621.873 555.495 622.083C549.951 621.725 544.403 621.396 538.858 621.037C536.452 620.885 536.1 624.273 538.441 624.743C544.224 625.867 549.86 626.206 555.532 625.825C555.84 625.845 556.177 625.868 556.485 625.888C532.23 640.932 500.562 644.651 474.975 630.452C448.72 615.883 434.143 584.588 441.077 555.287C441.273 554.467 439.837 554.098 439.625 554.931C431.344 584.909 446.34 617.994 473.161 633.306Z" fill="#FFC458"/>
</g>
<defs>
<filter id="filter0_d_728_6" x="0.529297" y="0.755859" width="757.424" height="656.587" filterUnits="userSpaceOnUse" color-interpolation-filters="sRGB">
<feFlood flood-opacity="0" result="BackgroundImageFix"/>
<feColorMatrix in="SourceAlpha" type="matrix" values="0 0 0 0 0 0 0 0 0 0 0 0 0 0 0 0 0 0 127 0" result="hardAlpha"/>
<feOffset/>
<feGaussianBlur stdDeviation="3.5"/>
<feComposite in2="hardAlpha" operator="out"/>
<feColorMatrix type="matrix" values="0 0 0 0 0.984314 0 0 0 0 0.756863 0 0 0 0 0.447059 0 0 0 0.5 0"/>
<feBlend mode="normal" in2="BackgroundImageFix" result="effect1_dropShadow_728_6"/>
<feBlend mode="normal" in="SourceGraphic" in2="effect1_dropShadow_728_6" result="shape"/>
</filter>
<radialGradient id="paint0_radial_728_6" cx="0" cy="0" r="1" gradientUnits="userSpaceOnUse" gradientTransform="translate(389.079 536.705) scale(345.068 45.7073)">
<stop stop-color="#ABB4BA"/>
<stop offset="0.0574" stop-color="#BAC1C6"/>
<stop offset="0.1775" stop-color="#D3D8DB"/>
<stop offset="0.3117" stop-color="#E7E9EB"/>
<stop offset="0.4658" stop-color="#F5F6F6"/>
<stop offset="0.6572" stop-color="#FDFDFD"/>
<stop offset="1" stop-color="white"/>
</radialGradient>
</defs>
</svg>
