<svg width="617" height="514" viewBox="0 0 617 514" fill="none" xmlns="http://www.w3.org/2000/svg">
<path d="M79.2883 49.6549L82.9068 94.8584C83.0178 96.4373 80.8821 96.9645 80.2249 95.4763L80.1235 95.2557L71.6028 73.5738C71.5539 73.4092 71.449 73.2971 71.2915 73.129C70.8718 72.6806 70.0036 72.6521 69.6041 73.2364L62.4257 81.7455C60.7861 83.7013 57.7093 83.1112 56.9197 80.6952L56.773 80.2015L49.9565 59.5534L49.8587 59.2243C49.4114 57.9603 47.7419 57.5251 46.8416 58.4732L38.9285 66.1977C36.2908 68.7725 31.8807 67.4324 31.1304 63.8226L30.9908 63.1119L20.3315 13.9831C20.0905 13.0517 20.5496 12.3064 21.215 11.8937C22.045 11.4322 23.1826 11.5239 23.8016 12.522L38.9552 35.6715C39.7841 36.8938 41.5204 36.9509 42.3754 35.7297L49.5585 25.4283C50.0736 24.6305 50.9036 24.1689 51.7228 24.0329C53.3088 23.7049 55.0726 24.5777 55.6106 26.3879L63.8096 52.8935C64.2044 54.1015 65.6569 54.5296 66.6061 53.746L66.6622 53.6936L73.7167 47.2988C74.109 46.9315 74.5503 46.7287 75.044 46.582C76.8542 46.0441 79.1463 47.3688 79.2883 49.6549Z" fill="#FFC458"/>
<path d="M49.9576 59.553L49.9016 59.6055L49.8038 59.2763C49.3565 58.0123 47.6869 57.5771 46.7866 58.5253L38.8735 66.2497C36.2358 68.8245 31.8258 67.4844 31.0755 63.8747L30.9359 63.1639C31.748 63.245 33.0014 63.1233 34.2868 62.0249C36.8017 59.8806 43.2577 53.5204 45.3242 51.7959C47.3907 50.0714 49.9576 59.553 49.9576 59.553Z" fill="#FF8D76"/>
<path d="M71.237 73.1813C70.8172 72.7329 69.949 72.7043 69.5495 73.2887L62.3711 81.7978C60.7315 83.7536 57.6548 83.1635 56.8652 80.7475L56.7185 80.2538C57.6045 79.7398 58.9949 78.7535 60.5784 76.8501C63.4653 73.3057 67.5052 67.7352 68.3698 67.8723C69.0698 68.0583 70.8875 72.2463 71.237 73.1813Z" fill="#FF8D76"/>
<path d="M38.8453 35.7758C39.6742 36.9981 41.4105 37.0553 42.2655 35.8341C40.5234 39.2531 38.2113 41.8386 36.3508 38.9529C34.6441 36.3437 23.2066 15.8152 21.1015 12.1066C21.9315 11.645 23.0692 11.7368 23.6882 12.7349L38.8453 35.7758Z" fill="#FF8D76"/>
<path d="M63.6992 52.9985C64.094 54.2065 65.5465 54.6345 66.4957 53.8509C66.3276 54.0084 66.2155 54.1133 66.0473 54.2707C63.6934 56.4747 60.9901 57.7437 59.6208 53.1358C58.3946 49.1302 53.0652 29.5088 51.6124 24.1378C53.1984 23.8097 54.9622 24.6826 55.5002 26.4928L63.6992 52.9985Z" fill="#FF8D76"/>
<path d="M79.2896 49.6549L82.9081 94.8584C83.0191 96.4373 80.8834 96.9646 80.2262 95.4763L80.1248 95.2557C80.2308 93.684 80.3201 90.971 79.6651 86.1151C78.8252 80.2753 75.6681 52.4147 74.9892 46.6346C76.8555 46.0441 79.1476 47.3689 79.2896 49.6549Z" fill="#FF8D76"/>
<path d="M84.4749 442.863L128.857 452.171C130.403 452.511 130.305 454.708 128.692 454.918L128.452 454.953L105.245 456.997C105.074 456.997 104.937 457.066 104.731 457.17C104.182 457.445 103.909 458.27 104.357 458.819L110.49 468.11C111.902 470.235 110.466 473.02 107.926 473.094L107.411 473.095L85.6778 473.797L85.3344 473.797C83.9955 473.869 83.1061 475.348 83.761 476.479L88.9334 486.253C90.6575 489.511 88.1254 493.362 84.4508 493.062L83.7296 492.995L33.5914 489.331C32.6299 489.299 32.0447 488.648 31.837 487.893C31.6289 486.966 32.0385 485.901 33.1709 485.589L59.66 477.598C61.0667 477.148 61.6123 475.499 60.6827 474.334L52.832 464.531C52.2124 463.812 52.0043 462.885 52.1054 462.061C52.2391 460.447 53.5749 459.002 55.4634 458.997L83.2057 458.626C84.476 458.589 85.2972 457.316 84.814 456.184L84.7795 456.116L80.6399 447.541C80.3984 447.061 80.3287 446.581 80.3275 446.066C80.3233 444.177 82.2419 442.353 84.4749 442.863Z" fill="#FFC458"/>
<path d="M85.6783 473.794L85.7128 473.863L85.3694 473.864C84.0305 473.936 83.1411 475.414 83.7961 476.546L88.9684 486.32C90.6926 489.578 88.1604 493.429 84.4858 493.128L83.7646 493.061C84.0719 492.305 84.3095 491.068 83.6193 489.525C82.2734 486.506 77.9978 478.516 76.9278 476.046C75.8578 473.576 85.6783 473.794 85.6783 473.794Z" fill="#FF8D76"/>
<path d="M104.765 457.237C104.216 457.513 103.943 458.337 104.391 458.886L110.524 468.177C111.936 470.303 110.5 473.087 107.96 473.161L107.445 473.162C107.202 472.167 106.649 470.555 105.271 468.498C102.687 464.727 98.4862 459.277 98.8621 458.486C99.2384 457.867 103.769 457.308 104.765 457.237Z" fill="#FF8D76"/>
<path d="M59.7289 477.733C61.1357 477.284 61.6813 475.635 60.7517 474.469C63.5388 477.107 65.3652 480.055 62.0712 481.024C59.086 481.924 36.1615 487.091 32.0091 488.062C31.801 487.136 32.2106 486.07 33.343 485.759L59.7289 477.733Z" fill="#FF8D76"/>
<path d="M83.2736 458.762C84.5439 458.724 85.3651 457.452 84.8819 456.32C84.9854 456.526 85.0543 456.663 85.1578 456.869C86.6064 459.75 87.0594 462.702 82.2525 462.713C78.0636 462.756 57.7359 462.322 52.1733 462.197C52.307 460.583 53.6428 459.138 55.5313 459.133L83.2736 458.762Z" fill="#FF8D76"/>
<path d="M84.4739 442.862L128.856 452.17C130.402 452.51 130.304 454.708 128.691 454.917L128.451 454.952C126.973 454.406 124.396 453.553 119.553 452.809C113.714 451.964 86.0973 447.116 80.361 446.133C80.3223 444.176 82.2409 442.352 84.4739 442.862Z" fill="#FF8D76"/>
<path d="M592.437 239.755L565.189 247.985C564.235 248.263 563.628 247.023 564.454 246.422L564.575 246.331L576.743 238.221C576.837 238.169 576.892 238.09 576.974 237.971C577.193 237.654 577.095 237.117 576.684 236.95L570.51 233.678C569.092 232.932 569.045 230.967 570.422 230.161L570.705 230.005L582.465 223.078L582.654 222.975C583.37 222.532 583.415 221.45 582.713 221.024L576.923 217.197C574.993 215.921 575.228 213.038 577.343 212.098L577.76 211.917L606.48 198.846C607.019 198.575 607.537 198.757 607.879 199.11C608.272 199.558 608.367 200.268 607.837 200.781L595.652 213.154C595.012 213.825 595.208 214.898 596.071 215.26L603.345 218.297C603.903 218.507 604.297 218.954 604.489 219.439C604.901 220.368 604.6 221.566 603.561 222.137L588.392 230.691C587.704 231.093 587.634 232.041 588.241 232.519L588.281 232.547L593.141 236.024C593.419 236.216 593.602 236.459 593.758 236.743C594.328 237.782 593.82 239.364 592.437 239.755Z" fill="#FFC458"/>
<path d="M582.466 223.08L582.426 223.052L582.615 222.948C583.331 222.506 583.376 221.424 582.675 220.998L576.884 217.171C574.954 215.895 575.19 213.012 577.304 212.072L577.722 211.891C577.78 212.4 578.021 213.153 578.866 213.795C580.516 215.053 585.276 218.168 586.608 219.206C587.941 220.244 582.466 223.08 582.466 223.08Z" fill="#FF8D76"/>
<path d="M576.933 237.944C577.153 237.627 577.055 237.091 576.643 236.923L570.469 233.651C569.051 232.906 569.004 230.94 570.381 230.134L570.664 229.979C571.098 230.454 571.887 231.176 573.266 231.894C575.824 233.193 579.778 234.931 579.809 235.48C579.788 235.934 577.46 237.606 576.933 237.944Z" fill="#FF8D76"/>
<path d="M595.572 213.1C594.932 213.771 595.128 214.844 595.991 215.206C593.662 214.592 591.768 213.518 593.291 211.993C594.665 210.599 605.737 200.853 607.732 199.069C608.125 199.516 608.22 200.226 607.69 200.739L595.572 213.1Z" fill="#FF8D76"/>
<path d="M588.313 230.636C587.625 231.039 587.555 231.987 588.162 232.465C588.043 232.383 587.964 232.328 587.845 232.246C586.18 231.095 585.042 229.605 587.687 228.153C589.981 226.868 601.309 220.99 604.41 219.384C604.822 220.314 604.521 221.512 603.483 222.082L588.313 230.636Z" fill="#FF8D76"/>
<path d="M592.435 239.756L565.187 247.986C564.234 248.264 563.626 247.024 564.452 246.423L564.574 246.331C565.552 246.187 567.228 245.881 570.12 244.834C573.59 243.542 590.261 237.901 593.716 236.716C594.327 237.782 593.819 239.364 592.435 239.756Z" fill="#FF8D76"/>
<g filter="url(#filter0_biiiiii_708_6)">
<rect x="57" y="7.09473" width="493" height="500.81" rx="246.5" fill="white" fill-opacity="0.01"/>
</g>
<path d="M137.16 137.507C141.416 142.432 161.251 120.13 187.932 96.943C214.613 73.7565 238.044 58.4696 233.788 53.5529C229.532 48.6281 201.631 59.1224 174.95 82.3006C148.27 105.479 132.905 132.582 137.16 137.507Z" fill="#E2E9F0"/>
<path d="M154.674 108.781C157.132 111.624 168.571 98.7497 183.969 85.3798C199.367 72.01 212.885 63.1849 210.427 60.3423C207.969 57.4998 191.878 63.5567 176.48 76.9266C161.082 90.2964 152.216 105.939 154.674 108.781Z" fill="#F2F6F9"/>
<path d="M118.892 167.617C123.552 171.46 128.039 168.816 131.874 164.147C135.709 159.478 137.441 154.562 132.781 150.719C128.121 146.877 123.263 149.215 119.428 153.884C115.593 158.553 114.232 163.775 118.892 167.617Z" fill="#DCE7EF"/>
<path d="M247.456 48.6611C248.298 51.0492 250.854 50.9418 253.708 49.9419C256.562 48.9421 258.624 47.4216 257.782 45.0253C256.941 42.6373 254.318 42.5546 251.465 43.5545C248.619 44.5626 246.623 46.2731 247.456 48.6611Z" fill="#DCE7EF"/>
<path d="M501.411 357.552C499.01 365.203 495.819 372.591 492.379 379.846C488.874 387.076 485.006 394.141 480.709 400.967C472.173 414.634 462.07 427.425 450.276 438.572C438.499 449.703 424.865 459.139 409.764 465.238C402.243 468.328 394.366 470.518 386.374 471.757C378.383 472.98 370.275 473.228 362.316 472.451C370.3 471.939 378.176 470.931 385.814 468.973C389.64 468.031 393.418 466.932 397.096 465.577C400.783 464.238 404.428 462.808 407.95 461.106C422.111 454.413 434.911 445.142 446.309 434.366C457.732 423.599 467.827 411.395 476.965 398.479C481.493 391.993 485.839 385.349 489.889 378.507C493.996 371.698 497.839 364.716 501.411 357.552Z" fill="#DCE7EF"/>
<path d="M240.74 147.779L289.344 148.613L285.004 180.185L275.233 185.012L245.089 181.018L240.74 147.779Z" fill="#402415"/>
<path d="M256.213 177.255L240.51 181.951C240.51 181.951 252.764 191.614 259.283 191.111C265.794 190.607 272.874 192.786 280.895 190.277C288.916 187.769 289.601 182.347 289.601 182.347L271.752 177.247V155.206L245.692 150.692L255.215 159.712L256.213 177.255Z" fill="#F4A392"/>
<path d="M242.39 188.271C241.541 185.045 237.91 183.452 234.972 185.045C226.2 189.815 203.095 200.303 202.847 204.586C202.756 206.178 192.425 243.362 192.408 247.908C192.392 252.794 196.237 280.817 199.538 285.323C202.847 289.837 227.372 291.165 232.942 283.821C237.753 277.467 243.348 248.503 244.775 240.787C245.006 239.541 245.056 238.27 244.924 237.008L243.777 226.115C243.744 225.834 243.744 225.562 243.76 225.29C243.95 221.931 245.147 198.793 242.39 188.271Z" fill="#373737"/>
<path d="M289.311 216.089L300.261 207.912C300.261 207.912 309.965 253.273 314.322 261.665C318.679 270.057 317.425 284.077 317.425 284.077C317.425 284.077 323.49 286.536 313.415 281.478C303.339 276.42 309.355 268.753 309.355 268.753C309.355 268.753 292.29 232.403 289.311 216.089Z" fill="#F4A392"/>
<path d="M232.263 191.234C232.263 191.234 218.061 202.308 216.006 205.65C213.952 208.992 203.513 238.452 205.353 243.972C207.193 249.493 220.075 284.762 232.659 266.385C245.243 248.007 248.362 209.661 248.362 209.661L232.263 191.234Z" fill="#2F2F30"/>
<path d="M255.743 177.94C255.743 177.94 251.262 181.076 252.896 184.451C254.521 187.835 263.541 189.526 267.361 189.023C271.182 188.519 274.623 186.96 276.191 184.138C277.759 181.315 273.707 177.94 273.707 177.94L279.195 180.383L284.707 185.772L277 196.862L257.203 195.047L250.189 184.212C250.197 184.204 248.761 178.51 255.743 177.94Z" fill="#F18A77"/>
<path d="M291.333 224.06C291.333 224.06 300.872 223.144 302.968 220.116L301.285 212.615L290.541 219.761L291.333 224.06Z" fill="#F18A77"/>
<path d="M216.231 213.565C215.868 214.175 215.959 214.959 216.454 215.463C218.261 217.294 223.633 223.698 226.645 221.932C230.771 219.523 238.577 211.287 241.201 208.448C241.548 208.069 242.175 208.283 242.233 208.795L242.769 242.95C242.769 242.95 261.807 251.441 280.34 243.924L284.392 208.184C284.516 207.607 285.762 207.813 286.15 208.259L289.649 220.414C289.962 221.495 290.969 222.221 292.091 222.155C295.178 221.973 300.962 220.95 301.928 215.826C303.009 210.074 292.339 189.172 282.577 181.06C279.325 178.362 276.091 177.85 274.457 178.015C274.457 178.015 282.767 185.203 269.926 189.081C267.195 189.906 263.721 190.335 258.481 188.396C240.789 181.852 260.594 175.861 254.305 177.809C254.314 177.825 235.565 181.44 216.231 213.565Z" fill="#FBC172"/>
<path d="M210.282 201.136C210.282 201.136 192.244 190.112 199.423 182.264C206.602 174.416 217.965 172.073 221.975 193.454C221.975 193.454 218.633 197.126 216.966 197.299C215.3 197.464 214.631 184.608 208.277 186.109C201.931 187.611 211.619 197.464 212.791 198.636C213.954 199.799 210.282 201.136 210.282 201.136Z" fill="#2F2F30"/>
<path d="M226.109 222.162C226.109 222.162 240.666 208.736 241.351 208.233C242.036 207.73 242.894 208.835 243.018 210.156C243.141 211.468 244.066 222.253 243.521 224.935C242.976 227.617 242.539 230.447 242.539 230.447L242.267 212.994L242.242 208.802L241.681 208.266L230.656 218.894L226.109 222.162Z" fill="#F6A456"/>
<path d="M270.76 403.896C270.76 403.896 268.252 403.937 267.88 404.556C266.676 406.577 265.083 410.448 267.88 413.856C270.851 417.487 280.465 422.834 283.914 424.682C284.813 425.169 285.812 425.367 286.786 425.681C289.789 426.663 296.713 426.943 298.099 422.941C299.923 417.685 285.218 403.995 280.382 404.531C275.555 405.067 281.405 409.16 270.76 403.896Z" fill="#373737"/>
<path d="M281.538 404.333C281.538 404.333 282.743 411.553 279.616 411.19C276.488 410.827 268.789 403.896 268.789 403.896L281.538 404.333Z" fill="#F4A392"/>
<path d="M255.798 403.334C255.798 403.334 258.233 403.376 258.596 403.978C259.767 405.934 261.302 409.697 258.596 412.998C255.707 416.521 246.391 421.703 243.041 423.502C242.166 423.973 241.2 424.162 240.26 424.476C237.347 425.433 230.638 425.697 229.285 421.819C227.51 416.719 241.778 403.442 246.465 403.962C251.152 404.482 245.483 408.434 255.798 403.334Z" fill="#373737"/>
<path d="M230.656 194.163L233.148 191.515L233.759 190.912C233.759 190.912 246.368 202.754 248.01 204.181C248.01 204.181 249.363 205.592 250.073 211.468L251.319 220.561C251.319 220.561 251.905 227.559 251.575 227.922C251.245 228.285 251.971 228.764 250.106 230.802C248.241 232.84 242.729 238.262 242.729 238.262L242.688 237.09C242.688 237.09 248.159 232.411 248.365 231.867L250.073 229.944C250.073 229.944 250.907 229.861 250.907 225.768C250.907 221.675 249.24 210.907 249.24 210.907C249.24 210.907 248.068 205.106 245.691 203.43C243.315 201.755 236.837 195.327 236.837 195.327C236.837 195.327 234.708 191.828 230.656 194.163Z" fill="#F6A456"/>
<path d="M245.345 403.755C245.345 403.755 244.181 410.761 247.21 410.406C250.238 410.052 257.706 403.334 257.706 403.334L245.345 403.755Z" fill="#F4A392"/>
<path d="M250.973 412.75C248.844 415.754 243.489 422.331 236.962 423.123C236.219 423.214 235.476 423.115 234.791 422.826C233.331 422.215 230.781 420.845 230.855 418.807C230.946 416.414 238.406 410.118 240.881 408.096C241.31 407.749 241.946 407.815 242.284 408.253L244.116 410.588C244.298 410.819 244.562 410.951 244.85 410.968L250.214 411.191C250.982 411.232 251.427 412.115 250.973 412.75Z" fill="#EDE8E2"/>
<path d="M244.883 415.077C244.14 414.301 243.447 413.551 242.663 412.915C242.275 412.602 241.862 412.321 241.425 412.082C240.979 411.867 240.509 411.694 239.973 411.578C240.493 411.455 241.07 411.471 241.607 411.636C242.135 411.809 242.622 412.098 243.051 412.436C243.892 413.146 244.552 414.046 244.883 415.077Z" fill="#373737"/>
<path d="M242.424 417.041C241.681 416.265 240.988 415.514 240.204 414.879C239.816 414.565 239.403 414.285 238.966 414.046C238.52 413.831 238.05 413.658 237.514 413.542C238.034 413.418 238.611 413.435 239.148 413.6C239.676 413.773 240.163 414.062 240.592 414.4C241.433 415.11 242.094 416.018 242.424 417.041Z" fill="#373737"/>
<path d="M279.95 243.841C279.183 244.501 257.175 249.18 245.647 242.652C245.647 242.652 232.749 263.555 234.853 285.414C236.957 307.274 241.768 354.252 241.768 354.252L244.863 403.384C244.863 403.384 247.768 407.436 257.249 403.384C257.249 403.384 257.406 355.597 260.41 347.502L262.299 275.693L265.542 275.966C265.542 275.966 267.63 344.804 267.927 347.238C268.224 349.664 270.031 405.191 270.031 405.191C270.031 405.191 276.344 408.344 281.757 405.191C281.757 405.191 285.966 356.414 285.363 351.826L291.066 281.651C291.305 279.283 291.519 276.139 291.066 273.804C289.696 266.707 287.195 251.763 279.95 243.841Z" fill="#E2ECF9"/>
<path d="M241.697 247.579C241.697 247.579 261.593 249.304 273.5 248.231C277.362 247.884 280.011 246.861 281.307 245.442L279.962 243.833C279.962 243.833 260.644 248.058 250.048 244.22" fill="#D0E0F1"/>
<path d="M223.475 258.612C223.475 258.612 222.303 268.968 229.491 265.791C236.134 262.853 257.052 236.794 260.172 232.874C260.436 232.544 260.609 232.164 260.7 231.752C261.517 227.832 263.943 207.664 255.716 196.97L241.852 180.103C241.852 180.103 230.984 185.986 231.331 187.95C231.603 189.477 242.017 198.661 246.663 202.696C248.107 203.951 249.073 205.651 249.411 207.532C250.476 213.523 252.621 226.8 251.21 229.375C249.362 232.725 224.639 255.27 223.475 258.612Z" fill="#373737"/>
<path d="M237.2 187.116L246.186 184.418L246.401 185.631L252.375 192.909L255.701 196.961C255.701 196.961 258.341 200.617 258.944 202.886C259.554 205.155 259.661 204.965 259.661 204.965L258.977 205.378C258.977 205.378 257.689 201.235 255.907 199.511C255.907 199.511 251.921 194.428 251.484 194.081C251.046 193.734 246.491 187.702 245.806 187.611C245.121 187.521 237.538 188.94 237.538 188.94C237.538 188.94 233.338 188.907 232.62 188.255C231.902 187.595 234.155 186.473 234.155 186.473L237.2 187.116Z" fill="#2F2F30"/>
<path d="M251.68 216.485C251.68 216.485 251.152 219.258 251.68 221.634C252.208 224.011 261.665 217.987 261.665 217.987L261.261 211.971L251.68 216.485Z" fill="#2F2F30"/>
<path d="M250.279 218.425C250.279 218.425 252.227 222.567 251.443 223.236C250.659 223.904 243.018 225.109 243.018 225.109L242.539 221.767L250.279 218.425Z" fill="#F6A456"/>
<path d="M216.108 215.115C216.108 215.115 208.293 229.663 208.376 231.834C208.458 234.07 208.211 236.925 211.594 236.43C214.977 235.927 249.825 219.282 249.825 219.282L255.42 218.119C256.757 217.838 258.02 217.302 259.15 216.526L262.575 214.174C262.995 214.018 263.92 212.309 264.002 211.864C264.415 209.751 264.522 206.781 263.037 205.13C262.69 204.742 261.931 204.899 261.122 205.056C255.948 206.054 249.363 212.491 248.134 214.579L229.922 220.966L225.688 222.22L224.748 222.138C224.558 222.088 224.368 222.039 224.153 221.956L223.015 221.403L221.851 220.619C221.372 220.231 220.968 219.918 220.547 219.563C220.308 219.357 219.953 219.002 219.739 218.779C219.062 218.078 218.303 217.384 217.502 216.584L216.108 215.115Z" fill="#F4A392"/>
<path d="M265.547 249.015V262.111V268.729" stroke="#BFCEDD" stroke-miterlimit="10" stroke-linecap="round" stroke-linejoin="round"/>
<path d="M258.013 248.784C258.013 248.784 255.042 265.725 265.547 263.315" stroke="#BFCEDD" stroke-miterlimit="10" stroke-linecap="round" stroke-linejoin="round"/>
<path d="M276.327 248.495C276.575 250.104 277.029 251.663 277.614 253.14C278.217 254.609 279.009 256.004 280.04 257.184C280.527 257.803 281.138 258.298 281.724 258.818C282.376 259.247 283.003 259.726 283.737 260.031C285.14 260.774 286.725 261.112 288.325 261.442C287.921 261.434 287.509 261.425 287.104 261.401C286.7 261.368 286.279 261.392 285.875 261.293C285.066 261.12 284.241 260.98 283.482 260.625C282.673 260.369 281.988 259.874 281.262 259.445C280.618 258.909 279.95 258.38 279.422 257.729C278.332 256.45 277.524 254.948 277.02 253.372C276.509 251.779 276.253 250.129 276.327 248.495Z" fill="#BFCEDD"/>
<path d="M252.017 249.014C251.96 250.78 251.531 252.53 250.879 254.188C250.227 255.855 249.253 257.406 247.999 258.71C247.66 259.016 247.363 259.362 246.992 259.626L245.886 260.427C245.498 260.658 245.078 260.839 244.673 261.046C244.277 261.277 243.84 261.392 243.402 261.516C242.965 261.623 242.552 261.813 242.099 261.854L240.77 262.028C240.333 262.102 239.879 262.036 239.441 262.028C238.996 262.011 238.558 261.986 238.121 261.953C239.871 261.763 241.612 261.607 243.196 260.914C244.013 260.649 244.731 260.179 245.465 259.766L246.48 259.007C246.819 258.76 247.091 258.421 247.405 258.141C248.593 256.936 249.534 255.484 250.301 253.941C250.681 253.165 251.011 252.364 251.283 251.539C251.597 250.714 251.819 249.872 252.017 249.014Z" fill="#BFCEDD"/>
<path d="M275.745 413.608C277.94 416.703 283.461 423.486 290.194 424.303C290.953 424.394 291.729 424.295 292.43 423.997C293.941 423.362 296.565 421.959 296.482 419.855C296.391 417.388 288.692 410.902 286.151 408.814C285.705 408.451 285.053 408.525 284.707 408.979L282.825 411.388C282.644 411.628 282.363 411.768 282.066 411.776L276.537 411.999C275.728 412.04 275.275 412.956 275.745 413.608Z" fill="#EDE8E2"/>
<path d="M282.023 416.01C282.37 414.954 283.047 414.021 283.913 413.295C284.359 412.948 284.854 412.651 285.398 412.47C285.951 412.297 286.537 412.272 287.082 412.404C286.537 412.519 286.05 412.693 285.58 412.915C285.126 413.163 284.697 413.444 284.301 413.774C283.492 414.426 282.783 415.201 282.023 416.01Z" fill="#373737"/>
<path d="M284.547 418.031C284.893 416.975 285.57 416.042 286.437 415.316C286.882 414.969 287.377 414.672 287.922 414.491C288.475 414.318 289.061 414.293 289.605 414.425C289.061 414.54 288.574 414.714 288.103 414.936C287.65 415.184 287.221 415.465 286.824 415.795C286.024 416.455 285.314 417.23 284.547 418.031Z" fill="#373737"/>
<path d="M255.742 169.457L256.147 175.473C256.147 175.473 267.023 173.03 269.325 170.901C269.325 170.893 258.028 171.834 255.742 169.457Z" fill="#F18A77"/>
<path d="M245.123 156.486C243.093 160.678 238.967 155.446 238.769 149.018C238.579 142.664 244.009 147.318 244.009 147.318" fill="#F18A77"/>
<path d="M242.689 152.639L242.936 154.207C242.986 154.513 242.672 154.76 242.392 154.636C241.632 154.298 240.634 153.58 242.037 152.4C242.276 152.202 242.639 152.334 242.689 152.639Z" fill="#D85843"/>
<path d="M282.096 156.486C284.126 160.678 288.252 155.446 288.45 149.018C288.64 142.664 283.21 147.318 283.21 147.318" fill="#F4A392"/>
<path d="M284.532 152.639L284.284 154.207C284.235 154.513 284.549 154.76 284.829 154.636C285.588 154.298 286.587 153.58 285.184 152.4C284.945 152.202 284.573 152.334 284.532 152.639Z" fill="#D85843"/>
<path d="M285.499 137.604C285.499 156.675 275.745 172.13 263.722 172.13C260.298 172.13 257.055 170.876 254.175 168.64C246.938 163.029 241.945 151.236 241.945 137.604C241.945 118.534 250.123 109.737 262.154 109.737C274.186 109.737 285.499 118.534 285.499 137.604Z" fill="#F4A392"/>
<path d="M279.433 140.774L278.022 140.204C277.535 140.064 277.073 139.882 276.586 139.792C276.099 139.693 275.629 139.569 275.142 139.544C274.664 139.462 274.185 139.478 273.706 139.462C272.749 139.503 271.866 139.825 270.967 139.981C270.051 140.155 269.151 140.394 268.103 140.691H268.095C268.046 140.708 267.996 140.675 267.988 140.633C267.98 140.609 267.988 140.592 267.996 140.567C268.499 139.528 269.448 138.834 270.48 138.397C271.528 137.943 272.7 138.026 273.772 138.133C274.862 138.273 275.901 138.562 276.867 138.999C277.354 139.206 277.799 139.495 278.253 139.734C278.691 140.014 279.111 140.32 279.532 140.617C279.574 140.642 279.582 140.691 279.549 140.732C279.516 140.774 279.475 140.79 279.433 140.774Z" fill="#4D2B16"/>
<path d="M252.863 137.068C252.863 137.068 245.106 137.778 244.933 139.016C244.768 140.254 244.141 145.972 245.139 149.397C245.585 150.932 246.294 154.34 247.73 157.5C249.496 161.387 252.104 165.051 253.68 166.289C256.585 168.566 255.735 168.302 259.151 169.903C260.933 170.737 261.965 171.025 263.426 171.058C264.919 171.091 267.023 170.712 271.331 169.953C271.405 170.076 266.669 172.61 263.714 172.205C262.939 172.098 261.602 172.04 260.117 171.652C259.333 171.446 258.441 171.108 257.591 170.737C254.101 169.218 250.396 166.264 248.349 162.064C248.349 162.064 244.76 156.675 243.382 150.008C242.003 143.34 241.682 134.576 241.682 134.576H252.541C252.541 134.576 254.654 123.469 255.892 123.552C257.138 123.634 259.72 129.897 260.554 131.82C261.387 133.743 272.594 135.476 273.625 135.476C274.657 135.476 265.332 136.664 262.147 136.664C258.961 136.664 252.863 137.068 252.863 137.068Z" fill="#F18A77"/>
<path d="M276.107 185.623C276.107 185.623 276.008 188.734 276.94 190.425C277.881 192.117 290.152 194.543 292.314 192.579L288.468 186.539L282.271 180.441L277.65 178.394L274.465 177.981C274.457 177.99 279.218 182.322 276.107 185.623Z" fill="#F6A456"/>
<path d="M245.46 124.905C245.46 124.905 250.65 120.341 254.124 121.224C257.598 122.107 266.23 118.592 274.564 123.964C282.899 129.336 283.864 142.11 283.864 142.11C283.864 142.11 283.212 159.514 280.374 161.585C277.015 164.036 279.953 172.502 280.572 176.042C281.191 179.574 276.314 188.098 278.434 187.083C280.555 186.077 287.71 190.483 290.185 191.209C292.661 191.944 297.059 175.192 294.625 170.406C292.322 165.884 296.457 159.489 296.713 157.186C297.191 152.862 294.443 147.49 294.295 144.313C294.204 142.234 291.06 132.909 288.452 124.509C286.257 117.462 282.164 113.583 281.141 112.857C278.905 111.264 272.675 104.481 254.388 108.294C236.102 112.106 234.955 130.764 234.955 130.764C234.955 130.764 232.471 139.841 232.867 142.614C233.263 145.386 234.064 148.283 232.57 154.744C231.068 161.205 235.648 168.409 235.673 174.177C235.697 179.945 233.329 183.411 233.634 186.547C233.94 189.675 247.655 185.02 248.975 184.789C251.417 184.36 246.07 178.897 246.326 172.222C246.582 165.57 243.421 158.482 242.786 157.64C241.606 156.048 243.933 143.695 243.372 142.316C242.811 140.947 240.797 127.925 245.46 124.905Z" fill="#4E2B14"/>
<path d="M263.719 135.426C263.719 135.426 279.86 135.938 284.126 134.436C288.393 132.934 279.447 117.396 279.447 117.396L252.901 116.142L239.029 126.919V137.069C239.029 137.069 250.285 136.441 252.901 135.938C255.905 135.369 256.061 125.664 256.061 125.664L258.372 134.123C258.553 134.783 259.148 135.253 259.833 135.278L263.719 135.426Z" fill="#4E2B14"/>
<path d="M256.873 161.692C256.873 161.692 257.69 161.725 258.07 162.071C258.672 162.633 267.98 162.765 269.325 162.071C270.117 161.667 270.307 161.857 270.307 161.857C270.307 161.857 269.235 162.69 268.88 162.897C268.781 162.954 268.467 163.351 267.856 163.829C266.256 165.108 264.135 165.62 261.453 164.894C260.141 164.539 258.969 163.738 257.987 162.649C257.872 162.517 257.74 162.393 257.607 162.278L256.873 161.692Z" fill="#EE6F5A"/>
<path d="M257.533 162.071C258.482 162.483 259.448 162.805 260.438 163.053C261.428 163.292 262.435 163.457 263.442 163.498C264.448 163.573 265.463 163.457 266.454 163.267L267.196 163.094L267.914 162.838C268.409 162.706 268.847 162.426 269.325 162.236C268.475 162.813 267.551 163.325 266.528 163.573C265.521 163.845 264.465 163.969 263.417 163.911C262.377 163.853 261.337 163.672 260.347 163.358C259.365 163.036 258.4 162.632 257.533 162.071Z" fill="#D85843"/>
<path d="M274.426 153.671C276.254 153.671 277.735 153.061 277.735 152.309C277.735 151.557 276.254 150.948 274.426 150.948C272.599 150.948 271.117 151.557 271.117 152.309C271.117 153.061 272.599 153.671 274.426 153.671Z" fill="#EE9689"/>
<path d="M253.233 154.125C255.06 154.125 256.542 153.515 256.542 152.763C256.542 152.011 255.06 151.401 253.233 151.401C251.405 151.401 249.924 152.011 249.924 152.763C249.924 153.515 251.405 154.125 253.233 154.125Z" fill="#EE9689"/>
<path d="M261.929 166.396H265.939C266.335 166.396 266.541 166.866 266.269 167.155L264.264 169.308C264.082 169.498 263.777 169.498 263.604 169.308L261.599 167.155C261.326 166.866 261.532 166.396 261.929 166.396Z" fill="#EE9689"/>
<path d="M263.482 156.807C264.348 156.807 265.05 156.6 265.05 156.344C265.05 156.089 264.348 155.882 263.482 155.882C262.616 155.882 261.914 156.089 261.914 156.344C261.914 156.6 262.616 156.807 263.482 156.807Z" fill="#F18A77"/>
<path d="M262.129 147.358C262.261 147.391 262.294 147.556 262.335 147.672C262.368 147.796 262.384 147.928 262.401 148.052C262.426 148.307 262.434 148.563 262.442 148.819C262.45 149.331 262.417 149.842 262.376 150.346C262.285 151.361 262.145 152.367 261.947 153.366C261.848 153.869 261.741 154.364 261.601 154.859C261.535 155.107 261.46 155.355 261.378 155.602C261.336 155.726 261.287 155.85 261.221 155.982C261.138 156.147 261.089 156.196 261.081 156.254C260.998 156.518 261.361 156.955 261.708 157.261C262.071 157.583 262.484 157.88 262.904 158.16C262.409 158.02 261.931 157.83 261.485 157.558C261.262 157.418 261.048 157.261 260.85 157.046C260.668 156.848 260.47 156.535 260.528 156.155C260.544 156.064 260.569 155.973 260.61 155.899L260.685 155.742C260.726 155.643 260.767 155.528 260.8 155.412C260.874 155.181 260.94 154.942 260.998 154.703L261.336 153.242C261.543 152.26 261.741 151.278 261.914 150.288C262.005 149.793 262.087 149.298 262.153 148.802C262.186 148.555 262.219 148.307 262.236 148.06C262.244 147.936 262.244 147.812 262.236 147.688C262.244 147.573 262.244 147.424 262.129 147.358Z" fill="#EE6F5A"/>
<path d="M262.243 248.165C263.017 248.165 263.646 247.788 263.646 247.323C263.646 246.858 263.017 246.481 262.243 246.481C261.468 246.481 260.84 246.858 260.84 247.323C260.84 247.788 261.468 248.165 262.243 248.165Z" fill="#BFCEDD" stroke="#BFCEDD" stroke-miterlimit="10" stroke-linecap="round" stroke-linejoin="round"/>
<path d="M250.79 248.784C250.79 248.784 242.48 257.58 241.696 258.876C240.913 260.172 237.414 267.376 237.414 280.455C237.414 293.534 244.106 358.626 244.106 358.626L247.572 404.919C247.572 404.919 245.699 404.243 244.865 403.385L244.23 393.251L243.702 384.826L242.629 367.835L241.647 353.031L239.997 336.865L238.206 319.206L236.589 303.082L234.955 286.462C234.955 286.462 234.253 276.312 234.856 275C234.856 275 235.871 266.88 236.432 266.014C236.432 266.014 237.95 259.875 238.264 259.264C238.577 258.653 245.963 251.169 245.963 251.169L248.686 248.074L250.947 248.198L250.79 248.784Z" fill="#D0E0F1"/>
<path d="M265.562 276.592L268.797 305.218L270.035 338.366L271.611 405.281L270.035 405.182L269.251 381.664L268.591 352.238L267.196 328.117L266.264 299.367L265.562 276.592Z" fill="#D0E0F1"/>
<path d="M248.133 214.587L234.707 219.052C234.707 219.052 228.361 221.684 227.107 221.808C225.853 221.932 217.543 227.32 217.543 227.32L227.148 222.311L234.955 219.473C234.748 219.555 246.903 215.355 248.133 214.587Z" fill="#F18A77"/>
<path d="M216.199 215.115L215.439 216.312C215.439 216.312 218.006 219.167 218.567 219.621C219.178 220.116 221.637 221.775 222.635 222.336C223.625 222.897 226.101 222.171 226.101 222.171C226.101 222.171 224.855 222.286 224.277 222.022C223.7 221.758 222.19 220.974 221.62 220.487C221.051 220 219.896 219.018 219.78 218.845C219.78 218.845 218.682 217.756 218.649 217.723C218.616 217.69 217.568 216.65 217.568 216.65C217.568 216.65 216.586 215.619 216.52 215.544C216.454 215.47 216.199 215.115 216.199 215.115Z" fill="#F18A77"/>
<path d="M251.606 221.263L251.565 228.418C251.565 228.418 250.541 230.571 249.535 231.438C248.437 232.379 232.247 248.784 232.247 248.784C232.247 248.784 224.185 256.747 223.574 258.356C223.574 258.356 218.053 256.829 218.078 257.258C218.103 257.687 228.641 249.889 230.06 248.676C231.479 247.463 243.668 238.262 243.668 238.262L249.98 231.875C249.98 231.875 252.299 230.332 252.571 226.198V221.024L251.606 221.263Z" fill="#2F2F30"/>
<path d="M277 146.946C277 146.946 278.519 142.655 273.493 142.012C268.468 141.376 268.979 146.847 268.979 146.847" stroke="#323334" stroke-width="0.5" stroke-miterlimit="10" stroke-linecap="round" stroke-linejoin="round"/>
<path d="M269.111 145.369C269.144 146.029 268.987 146.681 269.49 147.102C270.233 147.729 271.776 147.837 272.997 147.837C274.062 147.837 275.654 147.713 276.389 147.201C277.066 146.731 277.09 146.021 277.123 145.229C277.189 143.513 275.176 142.225 273.08 142.126C270.885 142.019 269.02 143.612 269.111 145.369Z" fill="#FAEFEF"/>
<path d="M273.063 147.523C274.69 147.523 276.009 146.315 276.009 144.825C276.009 143.335 274.69 142.126 273.063 142.126C271.436 142.126 270.117 143.335 270.117 144.825C270.117 146.315 271.436 147.523 273.063 147.523Z" fill="#6292B7"/>
<path d="M272.996 146.129C273.82 146.129 274.489 145.461 274.489 144.636C274.489 143.811 273.82 143.142 272.996 143.142C272.171 143.142 271.502 143.811 271.502 144.636C271.502 145.461 272.171 146.129 272.996 146.129Z" fill="#292A2B"/>
<path d="M271.684 144.313C272.03 144.313 272.311 144.032 272.311 143.686C272.311 143.339 272.03 143.059 271.684 143.059C271.337 143.059 271.057 143.339 271.057 143.686C271.057 144.032 271.337 144.313 271.684 144.313Z" fill="#FAEFEF"/>
<path d="M278.543 142.811C278.246 143.026 277.908 143.149 277.561 143.257C277.214 143.331 276.835 143.422 276.488 143.273C276.67 143.273 276.835 143.224 277.008 143.191C277.173 143.149 277.346 143.116 277.512 143.059C277.85 142.976 278.18 142.869 278.543 142.811Z" fill="#323334"/>
<path d="M277.943 142.202C277.646 142.416 277.308 142.54 276.961 142.647C276.615 142.722 276.235 142.812 275.889 142.664C276.07 142.664 276.235 142.614 276.409 142.581C276.574 142.54 276.747 142.507 276.912 142.449C277.25 142.367 277.58 142.259 277.943 142.202Z" fill="#323334"/>
<path d="M277.51 141.706C277.164 141.937 276.776 142.077 276.38 142.201C275.984 142.291 275.555 142.39 275.15 142.234C275.357 142.234 275.555 142.192 275.745 142.151C275.934 142.102 276.132 142.06 276.322 142.003C276.727 141.912 277.106 141.78 277.51 141.706Z" fill="#323334"/>
<path d="M246.64 141.153C247.061 140.856 247.482 140.551 247.919 140.271C248.381 140.031 248.827 139.742 249.305 139.536C250.271 139.099 251.311 138.802 252.4 138.67C253.473 138.562 254.644 138.48 255.692 138.934C256.716 139.371 257.673 140.064 258.176 141.104C258.201 141.145 258.176 141.203 258.135 141.22C258.119 141.228 258.094 141.228 258.077 141.228H258.069C257.029 140.931 256.122 140.691 255.206 140.518C254.306 140.361 253.431 140.039 252.466 139.998C251.996 140.006 251.509 139.998 251.03 140.081C250.543 140.114 250.065 140.229 249.586 140.328C249.099 140.427 248.637 140.609 248.15 140.741L246.739 141.31H246.731C246.69 141.327 246.64 141.31 246.624 141.261C246.599 141.211 246.615 141.17 246.64 141.153Z" fill="#4D2B16"/>
<path d="M249.157 147.466C249.157 147.466 247.638 143.175 252.664 142.532C257.689 141.888 257.178 147.367 257.178 147.367" stroke="#323334" stroke-width="0.5" stroke-miterlimit="10" stroke-linecap="round" stroke-linejoin="round"/>
<path d="M257.047 145.89C257.014 146.55 257.171 147.202 256.668 147.622C255.925 148.25 254.382 148.357 253.161 148.357C252.096 148.357 250.504 148.233 249.769 147.721C249.093 147.251 249.068 146.541 249.035 145.749C248.969 144.033 250.982 142.746 253.078 142.646C255.273 142.547 257.138 144.14 257.047 145.89Z" fill="#FAEFEF"/>
<path d="M253.094 148.052C254.721 148.052 256.04 146.844 256.04 145.354C256.04 143.863 254.721 142.655 253.094 142.655C251.467 142.655 250.148 143.863 250.148 145.354C250.148 146.844 251.467 148.052 253.094 148.052Z" fill="#6292B7"/>
<path d="M253.16 146.649C253.985 146.649 254.653 145.98 254.653 145.155C254.653 144.33 253.985 143.662 253.16 143.662C252.335 143.662 251.666 144.33 251.666 145.155C251.666 145.98 252.335 146.649 253.16 146.649Z" fill="#292A2B"/>
<path d="M254.473 144.833C254.819 144.833 255.1 144.553 255.1 144.206C255.1 143.86 254.819 143.579 254.473 143.579C254.126 143.579 253.846 143.86 253.846 144.206C253.846 144.553 254.126 144.833 254.473 144.833Z" fill="#FAEFEF"/>
<path d="M247.615 143.34C247.978 143.398 248.308 143.505 248.647 143.587C248.812 143.645 248.985 143.678 249.15 143.719C249.315 143.761 249.488 143.802 249.67 143.802C249.323 143.95 248.936 143.86 248.597 143.785C248.251 143.678 247.912 143.554 247.615 143.34Z" fill="#323334"/>
<path d="M248.209 142.729C248.572 142.787 248.902 142.895 249.24 142.977C249.406 143.035 249.579 143.068 249.744 143.109C249.909 143.15 250.082 143.192 250.264 143.192C249.917 143.34 249.529 143.249 249.191 143.175C248.844 143.06 248.506 142.936 248.209 142.729Z" fill="#323334"/>
<path d="M248.645 142.234C249.049 142.309 249.437 142.432 249.825 142.531C250.014 142.589 250.212 142.639 250.402 142.68C250.6 142.721 250.79 142.771 250.996 142.763C250.592 142.919 250.163 142.812 249.767 142.729C249.379 142.606 248.991 142.465 248.645 142.234Z" fill="#323334"/>
<path d="M249.254 213.052C249.535 213.077 252.11 207.482 252.811 205.386C253.587 203.059 255.08 203.241 255.394 203.736C255.889 204.512 254.89 207.87 253.752 209.38C252.539 210.998 249.246 213.25 249.246 213.25" fill="#F4A392"/>
<path d="M257.945 207.838C257.945 207.838 260.759 206.641 262.014 206.575C263.268 206.509 263.499 206.575 263.499 206.575" stroke="#F18A77" stroke-width="0.25" stroke-miterlimit="10" stroke-linecap="round" stroke-linejoin="round"/>
<path d="M258.342 209.909C258.342 209.909 261.156 208.712 262.41 208.646C263.664 208.58 263.895 208.646 263.895 208.646" stroke="#F18A77" stroke-width="0.25" stroke-miterlimit="10" stroke-linecap="round" stroke-linejoin="round"/>
<path d="M258.342 212.623C258.342 212.623 261.156 211.427 262.41 211.361C263.664 211.295 263.895 211.361 263.895 211.361" stroke="#F18A77" stroke-width="0.25" stroke-miterlimit="10" stroke-linecap="round" stroke-linejoin="round"/>
<path d="M290.408 135.855C291.91 140.245 293.379 144.61 294.6 149.124C294.806 150.42 294.468 151.567 294.171 152.706C293.849 153.836 293.469 154.934 293.073 156.023L291.893 159.282L291.621 160.091C291.555 160.347 291.431 160.677 291.456 160.825C291.472 161.321 291.555 161.915 291.646 162.476C291.992 164.745 292.43 167.031 292.776 169.325C292.941 170.48 293.098 171.627 293.156 172.816C293.181 173.104 293.156 173.418 293.148 173.723C293.114 174.037 293.048 174.392 292.974 174.639C292.826 175.184 292.71 175.753 292.586 176.314C291.621 180.828 290.878 185.416 289.607 189.881C290.103 187.62 290.449 185.334 290.812 183.048L291.967 176.199C292.075 175.629 292.174 175.06 292.306 174.474C292.388 174.161 292.421 173.946 292.446 173.682C292.446 173.41 292.471 173.137 292.438 172.857C292.38 171.735 292.207 170.588 292.034 169.449C291.67 167.171 291.208 164.91 290.837 162.608C290.754 162.022 290.664 161.469 290.655 160.809C290.672 160.38 290.796 160.165 290.87 159.86L291.159 159.027L292.38 155.767C292.784 154.686 293.172 153.605 293.494 152.507C293.799 151.426 294.121 150.271 293.989 149.256C293.486 147.028 292.842 144.792 292.232 142.564L290.408 135.855Z" fill="#603720"/>
<path d="M239.841 131.82C238.817 133.957 237.844 136.119 237.126 138.364C236.763 139.478 236.449 140.625 236.35 141.763C236.35 142.044 236.325 142.333 236.358 142.605C236.408 142.869 236.441 143.133 236.532 143.43C236.688 144.016 236.796 144.602 236.911 145.188C237.348 147.532 237.588 149.9 237.753 152.276C237.835 153.465 237.885 154.653 237.885 155.858C237.877 156.46 237.86 157.063 237.786 157.673L237.695 158.531C237.679 158.812 237.679 159.093 237.687 159.381C237.91 164.011 239.106 168.789 238.339 173.591C237.431 178.278 236.193 182.842 234.84 187.389C235.351 185.078 235.888 182.768 236.366 180.449C236.862 178.138 237.365 175.811 237.712 173.492C238.017 171.19 237.877 168.83 237.637 166.495C237.406 164.143 236.969 161.824 236.862 159.398C236.862 159.093 236.862 158.787 236.886 158.474L236.994 157.574C237.068 157.013 237.084 156.427 237.101 155.85C237.117 154.678 237.076 153.506 237.01 152.326C236.878 149.974 236.622 147.622 236.292 145.295C236.201 144.718 236.111 144.132 235.979 143.571C235.904 143.298 235.863 142.976 235.822 142.655C235.797 142.341 235.83 142.028 235.838 141.722C235.987 140.501 236.342 139.354 236.746 138.232C237.613 136.012 238.652 133.875 239.841 131.82Z" fill="#603720"/>
<path d="M284.711 129.418L285.255 136.878C285.47 139.346 285.594 141.862 286.047 144.239C286.097 144.544 286.196 144.792 286.27 145.081C286.377 145.427 286.46 145.774 286.468 146.112C286.518 146.789 286.452 147.424 286.361 148.06C286.155 149.314 285.858 150.535 285.503 151.74L284.471 155.33C284.125 156.526 283.811 157.723 283.654 158.961C283.654 156.444 284.372 154.001 284.892 151.583C285.148 150.37 285.437 149.165 285.585 147.952C285.651 147.35 285.717 146.748 285.668 146.178C285.66 145.881 285.585 145.634 285.511 145.378C285.42 145.064 285.296 144.726 285.247 144.421C284.785 141.895 284.694 139.412 284.628 136.911C284.562 134.411 284.579 131.919 284.711 129.418Z" fill="#603720"/>
<path d="M259.676 124.806C259.676 124.806 260.113 133.058 261.524 133.611C262.935 134.172 276.419 134.172 279.439 133.611C281.907 133.157 269.372 132.662 264.693 132.505C263.645 132.472 262.712 131.795 262.259 130.764L259.676 124.806Z" fill="#603720"/>
<path d="M241.942 119.294C241.942 119.294 246.266 112.519 252.488 112.147C258.71 111.776 266.393 112.147 266.393 112.147C266.393 112.147 252.034 114.615 248.354 117.123C244.682 119.632 241.158 119.962 241.158 119.962" fill="#603720"/>
<path d="M363.009 413.171L364.37 376.557H350.045L352.512 411.801L363.009 413.171Z" fill="#F4A392"/>
<path d="M388.807 375.196L386.24 411.347L376.651 413.171L374.506 373.834L388.807 375.196Z" fill="#F4A392"/>
<path d="M350.738 385.783C350.738 385.783 359.551 387.152 364.007 385.783V378.645L350.738 377.267C350.738 377.267 350.062 384.9 350.738 385.783Z" fill="#F18A77"/>
<path d="M375.172 385.783C375.172 385.783 383.985 387.152 388.441 385.783V378.645L375.172 377.267C375.172 377.267 374.495 384.9 375.172 385.783Z" fill="#F18A77"/>
<path d="M392.337 381.014C392.295 381.723 391.701 382.276 390.992 382.26C386.725 382.177 373.176 381.905 372.969 381.616C371.789 379.957 370.246 371.639 369.726 368.702C369.561 367.786 368.777 367.068 367.853 367.126C367.325 367.159 366.813 367.456 366.549 368.339C365.864 370.616 365.6 381.715 365.6 381.715C365.6 381.715 348.725 383.638 345.54 380.453L343.914 357.487L393.484 359.74L392.337 381.014Z" fill="#373737"/>
<path d="M344.418 364.691C344.418 364.691 350.706 365.227 353.231 365.103C355.756 364.979 361.566 363.758 362.44 363.337C363.191 362.974 372.07 363.23 374.678 363.313C375.14 363.329 375.586 363.403 376.023 363.544C377.442 363.998 380.982 365.037 383.565 365.037C386.866 365.037 393.303 362.966 393.303 362.966V357.478L347.174 356.893L344.418 364.691Z" fill="#2F2F30"/>
<path d="M358.239 315.393C358.239 315.393 366.128 323.059 377.532 316.045C388.928 309.031 377.532 361.753 377.532 361.753L366.862 362.297L353.602 360.416L358.239 315.393Z" fill="#E2ECF9"/>
<path d="M391.604 311.762V316.581C391.604 317.473 390.539 317.926 389.896 317.316L384.829 312.497C384.169 311.869 384.615 310.755 385.522 310.755H390.589C391.15 310.747 391.604 311.201 391.604 311.762Z" fill="#C4DCF2"/>
<path d="M403.602 339.3C403.602 339.3 407.126 355.556 398.09 352.833C389.054 350.101 396.101 337.369 396.101 337.369L403.602 339.3Z" fill="#C4DCF2"/>
<path d="M362.537 319.345C362.537 319.345 364.353 336.278 364.114 338.564L362.537 361.62L357.958 360.572L356.811 318.916C356.811 318.916 361.25 317.959 362.537 319.345Z" fill="#C4DCF2"/>
<path d="M376.301 318.397C376.301 318.397 374.287 318.645 374.502 319.899C374.717 321.153 373.297 360.3 373.966 361.943C373.966 361.943 375.624 362.033 376.639 361.621C377.654 361.208 376.301 318.397 376.301 318.397Z" fill="#C4DCF2"/>
<path d="M320.849 297.065C320.849 297.065 320.387 296.768 319.24 294.672C317.722 291.9 319.092 285.925 315.568 285.95C315.568 285.95 314.008 289.44 317.516 292.642C317.516 292.642 316.368 293.03 317.119 290.719C318.035 287.906 318.217 289.704 318.217 289.704C318.217 289.704 308.504 290.068 310.972 289.696C313.439 289.325 307.407 287.46 307.407 287.46C307.407 287.46 310.163 287.031 311.987 287.683C313.431 288.203 312.325 286.115 310.213 285.29C309.66 285.075 309.032 284.943 308.372 284.968C308.372 284.968 310.13 284.844 311.574 284.844C312.672 284.852 311.459 283.648 309.66 283.54C309.453 283.524 309.239 283.532 309.024 283.549C308.636 283.582 308.744 283.623 307.836 283.829C304.964 284.489 306.21 298.749 316.732 304.376L320.849 297.065Z" fill="#F18A77"/>
<path d="M357.497 313.974C357.497 313.974 366.846 304.715 377.978 313.173C389.11 321.631 357.868 318.248 357.868 318.248L357.488 314.262" fill="#F6A456"/>
<path d="M385.71 312.645C385.108 310.772 383.127 308.024 376.658 311.35C375.948 311.713 375.494 312.431 375.453 313.223C375.115 320.823 373.456 360.581 375.511 362.223C377.722 363.997 384.043 364.691 394.251 360.936C394.796 360.738 395.233 360.334 395.48 359.814C396.611 357.454 399.499 350.357 396.925 343.772C396.619 342.996 395.86 342.526 395.027 342.427C393.805 342.287 391.569 341.206 388.012 336.716C382.467 329.711 382.723 318.083 385.397 314.593C385.834 314.057 385.925 313.314 385.71 312.645Z" fill="#FBC172"/>
<path d="M426.515 331.072C425.261 332.442 423.858 332.599 423.891 335.339C423.932 338.078 425.104 338.895 428.116 339.918C431.087 340.933 436.88 340.587 437.656 339.762C438.398 338.945 437.614 338.507 436.83 338.507C436.088 338.507 433.703 338.309 433.703 338.309C433.703 338.309 436.442 337.921 438.159 337.179C439.884 336.477 440.428 335.495 439.727 335.107C439.025 334.72 437.301 335.223 435.972 335.306C434.644 335.421 433.785 335.264 433.785 335.264C433.785 335.264 437.028 334.794 439.067 334.051C441.097 333.309 441.097 332.327 440.94 331.823C440.783 331.312 439.215 331.592 437.969 331.864C436.715 332.137 433.86 332.492 433.86 332.492C433.86 332.492 436.987 331.551 438.555 330.734C440.123 329.909 440.156 329.562 439.809 328.935C439.454 328.308 438.208 328.39 436.954 328.861C435.741 329.331 434.099 330.115 432.614 330.462C431.128 330.816 430.501 330.816 430.501 330.816C430.501 330.816 432.143 328.819 432.028 327.45C431.912 326.08 430.501 326.624 429.956 327.334C429.453 328.06 427.184 330.33 426.515 331.072Z" fill="#F4A492"/>
<path d="M423.299 329.306C424.141 329.818 424.694 330.684 424.826 331.658C425.09 333.688 425.676 337.789 424.636 340.174C423.332 343.161 397.578 339.035 395.3 338.128C393.023 337.22 387.346 320.848 389.161 315.385C389.161 315.394 416.756 325.329 423.299 329.306Z" fill="#FBC172"/>
<path d="M357.94 311.548C358.41 311.68 358.782 312.043 358.914 312.505C359.805 315.501 363.007 326.822 363.007 334.266C363.007 341.692 361.406 357.363 360.96 361.604C360.894 362.248 360.399 362.751 359.764 362.85C356.661 363.296 347.716 364.476 344.357 363.667C340.693 362.793 342.319 347.551 342.699 344.383C342.74 344.028 342.963 343.004 343.235 342.773C345.249 341.082 353.038 333.795 353.088 318.909C353.088 318.521 353.756 317.993 353.468 317.72C352.403 316.722 349.886 313.941 351.017 310.937C351.273 310.261 352.015 309.889 352.717 310.087L357.94 311.548Z" fill="#FBC172"/>
<path d="M348.461 311.301C348.461 311.301 327.311 296.521 322.765 296.521C319.53 296.521 317.211 300.342 316.147 302.545C315.709 303.445 315.874 304.509 316.559 305.252C321.056 310.129 338.526 328.432 346.415 327.45C346.415 327.442 349.369 318.348 348.461 311.301Z" fill="#FBC172"/>
<path d="M341.835 354.343C341.703 355.811 340.284 356.793 338.864 356.414C337.107 355.943 334.895 354.879 333.517 352.453C331.421 348.764 333.558 341.494 334.45 338.87C334.656 338.259 335.101 337.756 335.687 337.484L340.506 335.231C341.2 334.909 341.695 334.266 341.827 333.506L342.495 329.776C342.718 328.506 343.931 327.647 345.21 327.862C346.795 328.126 347.661 329.875 346.902 331.295L343.18 338.284C342.999 338.623 342.908 339.002 342.908 339.39V342.014C342.908 342.08 342.908 342.154 342.9 342.22L341.835 354.343Z" fill="#C4DCF2"/>
<path d="M374.504 318.909C374.504 318.909 368.183 322.63 361.185 318.909L360.162 307.942H374.504V318.909Z" fill="#F4A392"/>
<path d="M384.778 276.328C384.86 276.328 384.984 291.264 384.513 298.485C384.357 300.845 383.086 303.139 382.913 303.428C380.784 306.827 370.378 309.666 368.01 309.625C365.823 309.592 355.169 308.511 351.151 304.517C351.151 304.517 348.634 302.875 347.899 298.452C347.165 294.037 346.34 276.328 346.34 276.328L362.307 266.162H379.67L384.778 276.328Z" fill="#F4A392"/>
<path d="M366.021 296.587C366.723 296.587 367.292 296.421 367.292 296.216C367.292 296.011 366.723 295.844 366.021 295.844C365.319 295.844 364.75 296.011 364.75 296.216C364.75 296.421 365.319 296.587 366.021 296.587Z" fill="#F18A77"/>
<path d="M375.133 298.279C376.755 298.279 378.071 297.736 378.071 297.066C378.071 296.396 376.755 295.853 375.133 295.853C373.511 295.853 372.195 296.396 372.195 297.066C372.195 297.736 373.511 298.279 375.133 298.279Z" fill="#EE9689"/>
<path d="M369.098 306.432C369.098 307.1 368.768 307.719 367.142 307.719C365.517 307.719 365.021 307.174 365.021 306.506C365.021 305.838 365.525 305.293 367.142 305.293C368.76 305.293 369.098 305.763 369.098 306.432Z" fill="#EE9689"/>
<path d="M355.317 298.279C356.939 298.279 358.254 297.736 358.254 297.066C358.254 296.396 356.939 295.853 355.317 295.853C353.694 295.853 352.379 296.396 352.379 297.066C352.379 297.736 353.694 298.279 355.317 298.279Z" fill="#EE9689"/>
<path d="M364.932 288.929C365.13 289.036 365.13 289.3 365.163 289.49C365.187 289.696 365.204 289.902 365.204 290.117C365.212 290.53 365.196 290.95 365.163 291.355C365.097 292.18 364.989 292.997 364.824 293.806C364.75 294.21 364.659 294.614 364.544 295.019C364.486 295.217 364.428 295.423 364.354 295.629C364.321 295.728 364.28 295.836 364.222 295.943C364.148 296.083 364.115 296.116 364.106 296.149C364.032 296.314 364.304 296.677 364.585 296.925C364.874 297.189 365.196 297.445 365.534 297.684C365.13 297.585 364.734 297.437 364.362 297.222C364.172 297.115 363.999 296.983 363.834 296.809C363.677 296.644 363.504 296.38 363.554 296.042C363.57 295.959 363.595 295.885 363.628 295.819L363.686 295.695C363.719 295.621 363.743 295.53 363.776 295.44C363.834 295.258 363.892 295.06 363.941 294.87L364.214 293.69C364.379 292.898 364.544 292.097 364.701 291.305L364.915 290.109C364.948 289.911 364.973 289.704 364.989 289.506C365.006 289.308 365.08 289.061 364.932 288.929Z" fill="#EE6F5A"/>
<path d="M367.744 269.199C367.744 269.199 368.52 271.27 366.292 273.473C366.292 273.473 357.842 279.01 355.597 279.2C353.716 279.357 349.012 279.811 348.245 280.364C347.304 281.049 347.873 291.793 347.873 291.793C347.873 291.793 348.566 300.226 349.152 301.431C349.821 302.793 353.039 305.804 356.249 306.877C357.586 307.323 358.914 307.768 360.202 308.016C362.067 308.379 363.659 308.486 364.6 308.618C366.102 308.833 372.051 308.651 373.05 308.321C373.05 308.321 368.841 309.411 368.676 309.435C368.635 309.444 368.049 309.609 367.249 309.617C366.622 309.625 365.838 309.551 365.079 309.485C363.222 309.336 361.365 308.965 361.365 308.965C361.365 308.965 358.106 308.651 355.886 307.62C355.886 307.62 353.006 306.489 352.404 306.143C351.801 305.796 349.705 304.187 349.4 303.849C349.094 303.51 348.17 302.165 348.17 302.165C348.17 302.165 347.238 300.3 347.031 299.129C346.825 297.949 346.314 292.643 346.545 291.949C346.776 291.256 345.34 281.7 345.34 281.7L346.718 277.335L353.476 276.526L367.744 269.199Z" fill="#F18A77"/>
<path d="M365.617 278.911C365.617 278.911 368.01 279.439 369.826 278.622C371.641 277.805 376.741 271.946 376.741 271.946L375.693 270.279L365.617 278.911Z" fill="#F18A77"/>
<path d="M348.641 299.593C346.842 303.315 343.178 298.669 343.005 292.967C342.831 287.331 347.65 291.457 347.65 291.457" fill="#F18A77"/>
<path d="M383.91 300.342C385.709 304.063 389.373 299.417 389.546 293.715C389.72 288.079 384.9 292.205 384.9 292.205" fill="#F4A392"/>
<path d="M376.742 270.47C375.306 272.846 371.09 278.779 364.892 278.779C364.892 278.779 363.555 278.334 367.838 274.587C369.456 273.168 370.306 272.095 370.726 271.311C371.065 270.684 370.306 270.041 369.736 270.47C366.997 272.557 360.461 277.36 357.482 278.062C355.196 278.598 350.913 278.416 348.809 278.647C348.083 278.73 347.538 279.341 347.538 280.067V296.34C347.538 296.587 347.233 296.694 347.076 296.505C345.871 295.019 342.678 290.926 342.315 288.764C341.869 286.091 339.823 271.369 347.53 265.659C355.238 259.948 370.941 260.65 370.941 260.65C370.941 260.65 380.035 261.013 386.413 269.224C386.413 269.224 390.391 274.216 389.137 285.01C389.104 285.298 389.071 285.53 389.071 285.53C389.071 285.53 386.455 294.821 384.945 295.003C383.575 295.168 384.128 290.01 384.243 289.037C384.251 288.938 384.227 288.839 384.152 288.773C383.715 288.327 382.131 286.594 381.85 285.381C381.636 284.449 382.213 279.299 382.593 276.213C382.733 275.066 382.378 273.919 381.619 273.053C380.753 272.062 379.556 270.8 378.492 270.074C377.914 269.678 377.113 269.859 376.742 270.47Z" fill="#C57252"/>
<path d="M379.923 285.851L378.661 285.364C378.232 285.249 377.811 285.092 377.382 285.009C376.532 284.811 375.674 284.729 374.84 284.745C373.99 284.795 373.231 285.1 372.439 285.224C371.638 285.364 370.838 285.554 369.881 285.777H369.872C369.823 285.785 369.773 285.76 369.765 285.711C369.757 285.694 369.765 285.669 369.773 285.653C370.186 284.687 371.036 284.044 371.952 283.648C372.884 283.227 373.941 283.326 374.906 283.425C375.88 283.557 376.804 283.829 377.662 284.225C378.091 284.415 378.487 284.679 378.892 284.902C379.28 285.158 379.651 285.438 380.014 285.702C380.047 285.727 380.055 285.785 380.031 285.818C380.006 285.851 379.965 285.867 379.923 285.851Z" fill="#C57151"/>
<path d="M378.3 291.818C378.3 291.818 379.645 288.005 375.189 287.444C370.733 286.875 371.187 291.735 371.187 291.735" stroke="#323334" stroke-width="0.5" stroke-miterlimit="10" stroke-linecap="round" stroke-linejoin="round"/>
<path d="M371.304 290.423C371.337 291.009 371.196 291.586 371.634 291.958C372.294 292.51 373.664 292.609 374.745 292.609C375.686 292.609 377.097 292.494 377.749 292.048C378.351 291.636 378.376 291 378.4 290.299C378.458 288.772 376.676 287.633 374.819 287.543C372.88 287.452 371.221 288.863 371.304 290.423Z" fill="#FAEFEF"/>
<path d="M374.811 292.337C376.256 292.337 377.427 291.266 377.427 289.944C377.427 288.622 376.256 287.551 374.811 287.551C373.366 287.551 372.195 288.622 372.195 289.944C372.195 291.266 373.366 292.337 374.811 292.337Z" fill="#422B14"/>
<path d="M374.75 291.1C375.484 291.1 376.079 290.505 376.079 289.771C376.079 289.037 375.484 288.442 374.75 288.442C374.017 288.442 373.422 289.037 373.422 289.771C373.422 290.505 374.017 291.1 374.75 291.1Z" fill="#292A2B"/>
<path d="M373.59 289.49C373.9 289.49 374.152 289.239 374.152 288.929C374.152 288.619 373.9 288.368 373.59 288.368C373.281 288.368 373.029 288.619 373.029 288.929C373.029 289.239 373.281 289.49 373.59 289.49Z" fill="#FAEFEF"/>
<path d="M379.671 288.237C379.416 288.435 379.11 288.55 378.805 288.641C378.5 288.707 378.153 288.781 377.848 288.649C378.013 288.641 378.153 288.6 378.31 288.567C378.458 288.526 378.607 288.493 378.755 288.443C379.052 288.369 379.35 288.27 379.671 288.237Z" fill="#323334"/>
<path d="M379.144 287.609C378.888 287.807 378.583 287.922 378.278 288.013C377.972 288.079 377.626 288.154 377.32 288.021C377.477 288.013 377.626 287.972 377.782 287.939C377.931 287.898 378.079 287.865 378.228 287.815C378.525 287.749 378.822 287.65 379.144 287.609Z" fill="#323334"/>
<path d="M378.754 287.179C378.449 287.394 378.111 287.518 377.756 287.633C377.409 287.707 377.013 287.798 376.658 287.65C376.84 287.65 377.013 287.6 377.186 287.567C377.36 287.526 377.533 287.485 377.698 287.435C378.053 287.344 378.391 287.229 378.754 287.179Z" fill="#323334"/>
<path d="M351.128 285.678C351.491 285.406 351.862 285.133 352.25 284.878C352.654 284.655 353.051 284.399 353.48 284.201C354.338 283.797 355.262 283.524 356.236 283.4C357.193 283.293 358.257 283.202 359.19 283.623C360.106 284.028 360.956 284.671 361.368 285.628C361.385 285.67 361.368 285.727 361.319 285.744C361.302 285.752 361.278 285.752 361.261 285.752H361.253C360.296 285.529 359.495 285.34 358.695 285.199C357.903 285.076 357.143 284.77 356.294 284.721C355.46 284.704 354.602 284.787 353.752 284.985C353.323 285.067 352.902 285.216 352.473 285.34L351.21 285.827H351.202C351.161 285.843 351.111 285.818 351.095 285.777C351.087 285.744 351.095 285.703 351.128 285.678Z" fill="#C57151"/>
<path d="M352.835 291.793C352.835 291.793 351.49 287.981 355.946 287.419C360.402 286.85 359.948 291.71 359.948 291.71" stroke="#323334" stroke-width="0.5" stroke-miterlimit="10" stroke-linecap="round" stroke-linejoin="round"/>
<path d="M359.83 290.398C359.797 290.984 359.938 291.562 359.5 291.933C358.84 292.486 357.47 292.585 356.389 292.585C355.449 292.585 354.038 292.469 353.386 292.024C352.783 291.611 352.759 290.976 352.734 290.274C352.676 288.748 354.458 287.609 356.315 287.518C358.254 287.428 359.913 288.839 359.83 290.398Z" fill="#FAEFEF"/>
<path d="M356.325 292.304C357.77 292.304 358.941 291.232 358.941 289.911C358.941 288.589 357.77 287.518 356.325 287.518C354.88 287.518 353.709 288.589 353.709 289.911C353.709 291.232 354.88 292.304 356.325 292.304Z" fill="#422B14"/>
<path d="M356.381 291.075C357.115 291.075 357.71 290.48 357.71 289.746C357.71 289.012 357.115 288.417 356.381 288.417C355.648 288.417 355.053 289.012 355.053 289.746C355.053 290.48 355.648 291.075 356.381 291.075Z" fill="#292A2B"/>
<path d="M357.555 289.466C357.865 289.466 358.116 289.215 358.116 288.905C358.116 288.595 357.865 288.344 357.555 288.344C357.245 288.344 356.994 288.595 356.994 288.905C356.994 289.215 357.245 289.466 357.555 289.466Z" fill="#FAEFEF"/>
<path d="M351.475 288.129C351.796 288.17 352.093 288.269 352.391 288.335C352.539 288.385 352.688 288.418 352.836 288.459C352.985 288.492 353.133 288.533 353.298 288.542C352.993 288.682 352.646 288.599 352.341 288.533C352.027 288.442 351.73 288.327 351.475 288.129Z" fill="#323334"/>
<path d="M352 287.584C352.322 287.625 352.619 287.724 352.916 287.79C353.065 287.84 353.213 287.873 353.362 287.914C353.51 287.947 353.659 287.988 353.824 287.997C353.518 288.137 353.172 288.054 352.866 287.988C352.553 287.898 352.256 287.782 352 287.584Z" fill="#323334"/>
<path d="M352.381 287.146C352.744 287.204 353.082 287.312 353.429 287.394C353.602 287.452 353.767 287.485 353.94 287.526C354.114 287.567 354.287 287.609 354.469 287.609C354.114 287.757 353.726 287.666 353.371 287.592C353.025 287.493 352.686 287.361 352.381 287.146Z" fill="#323334"/>
<path d="M360.525 302.933C360.525 302.933 366.945 306.259 372.648 301.505" stroke="#D85843" stroke-width="0.5" stroke-miterlimit="10" stroke-linecap="round" stroke-linejoin="round"/>
<path d="M372.887 299.311C373.126 299.269 373.365 299.286 373.596 299.319C373.827 299.352 374.059 299.426 374.273 299.525C374.488 299.632 374.702 299.764 374.867 299.954C375.032 300.136 375.164 300.383 375.131 300.631C374.991 300.433 374.834 300.301 374.661 300.185C374.479 300.078 374.298 299.979 374.1 299.888C373.712 299.707 373.308 299.55 372.887 299.311Z" fill="#D85843"/>
<path d="M360.195 308.164L360.839 313.965C360.839 313.965 370.956 310.326 372.557 308.634L360.195 308.164Z" fill="#F18A77"/>
<path d="M357.1 312.002C357.1 312.002 358.403 311.21 358.915 312.505C359.427 313.801 361.911 324.694 361.911 324.694L363.008 332.673L362.752 341.024L361.828 352.824L360.962 361.613C360.962 361.613 360.376 362.785 358.94 362.974L360.186 355.275L361.267 344.292L361.688 333.02L358.932 318.925L357.1 312.002Z" fill="#F6A456"/>
<path d="M342.701 344.382C342.701 344.382 347.075 341.502 349.08 338.837C350.359 337.137 352.018 333.118 353.041 330.437C353.685 328.761 354.081 327.02 354.213 325.23C354.386 322.886 354.592 319.585 354.51 318.059C354.386 315.831 351.432 310.376 351.432 310.376C351.432 310.376 350.334 311.96 350.169 312.546C350.004 313.132 352.092 323.323 352.092 323.323L343.914 340.859L342.701 344.382Z" fill="#F6A456"/>
<path d="M350.252 312.092L347.57 310.681C347.57 310.681 342.702 323.827 343.684 327.292C343.684 327.292 346.506 328.052 349.254 327.82C352.01 327.581 350.252 312.092 350.252 312.092Z" fill="#F6A456"/>
<path d="M386.238 313.833C386.238 313.833 385.825 311.539 384.909 312.001C384.389 312.265 383.729 314.428 383.242 316.259C382.805 317.91 382.656 319.626 382.772 321.326L383.193 327.325C383.457 331.03 384.835 334.562 387.129 337.484C388.945 339.794 390.983 342.121 391.998 342.385C394.085 342.938 394.902 342.154 395.257 341.172C395.604 340.19 384.15 321.549 386.568 317.588C389.002 313.635 386.238 313.833 386.238 313.833Z" fill="#F6A456"/>
<path d="M348.725 311.168C349.22 310.946 350.293 310.541 350.912 310.871C350.986 310.913 351.036 310.979 351.069 311.061C351.366 311.837 353.412 316.087 353.61 317.754C353.759 319.049 353.404 324.058 353.28 325.312C353.264 325.51 353.231 325.7 353.189 325.89C353.008 326.723 352.422 329.249 351.242 332.17C351.184 332.318 351.11 332.475 351.036 332.615L349.575 335.52C349.484 335.702 349.385 335.875 349.27 336.04L346.679 339.77C346.489 340.042 346.274 340.306 346.035 340.545L343.592 343.021C343.32 343.302 342.841 343.104 342.85 342.707L342.907 338.854C342.907 338.813 342.916 338.771 342.924 338.73L346.588 326.839C346.588 326.831 346.596 326.822 346.596 326.806L347.9 321.137C347.991 320.741 348.057 320.336 348.106 319.932L348.552 316.054C348.601 315.6 348.618 315.138 348.601 314.676L348.469 311.565C348.461 311.408 348.56 311.243 348.725 311.168Z" fill="#373737"/>
<path d="M385.455 312.002L389.16 315.394L388.83 317.366C388.83 317.366 388.954 320.477 389.004 320.898C389.061 321.31 389.515 323.901 389.631 324.413C389.746 324.933 390.984 329.397 390.984 329.397C390.984 329.397 392.535 334.233 393.146 335.008C393.146 335.008 394.483 337.377 394.59 337.509C394.697 337.641 394.904 338.037 395.506 338.202L396.191 338.392C396.191 338.392 395.036 342.204 394.681 342.377C394.326 342.551 392.7 341.428 392.7 341.428C392.7 341.428 390.456 339.77 390.34 339.39L388.723 337.591L387.592 336.155C387.592 336.155 386.454 334.513 386.462 334.373C386.462 334.373 385.612 332.797 385.587 332.591L385.109 331.386L384.539 329.603L384.11 327.804C384.11 327.804 383.698 325.708 383.755 325.519L383.632 324.108L383.582 322.234L383.698 320.138L383.929 318.529C383.929 318.529 384.325 316.681 384.448 316.524C384.448 316.524 384.82 315.46 384.993 315.27C385.175 315.08 385.785 313.231 385.818 313.083C385.843 312.943 385.455 312.002 385.455 312.002Z" fill="#373737"/>
<path d="M344.419 343.162C344.419 343.162 341.976 356.802 342.851 360.062C343.726 363.321 343.726 363.329 343.726 363.329C343.726 363.329 341.877 360.483 342.017 356.975C342.158 353.468 343.123 343.162 343.123 343.162H344.419Z" fill="#F6A456"/>
<path d="M386.137 340.537C387.02 341.503 387.795 342.476 388.645 343.376C389.066 343.83 389.504 344.25 389.957 344.663C390.428 345.059 390.915 345.431 391.468 345.794C390.807 345.752 390.164 345.513 389.586 345.183C389.008 344.845 388.505 344.407 388.043 343.929C387.597 343.442 387.201 342.914 386.879 342.344C386.558 341.783 386.285 341.181 386.137 340.537Z" fill="#F6A456"/>
<path d="M386.19 294.995C386.19 294.995 385.637 297.495 385.752 297.693C385.81 297.792 386.388 297.511 386.94 297.206C387.452 296.926 387.535 296.216 387.106 295.82L386.19 294.995Z" fill="#F18A77"/>
<path d="M345.081 364.74C345.081 364.74 346.087 380.146 346.467 380.691C346.846 381.236 345.526 380.443 345.526 380.443L344.412 364.69L345.081 364.74Z" fill="#2F2F30"/>
<path d="M366.392 368.973C366.392 368.973 365.542 379.346 365.592 381.714L364.379 381.838C364.371 381.83 365.584 370.029 366.392 368.973Z" fill="#2F2F30"/>
<path d="M351.978 419.945C353.513 420.498 359.124 421.843 363.102 420.284C364.331 419.805 364.414 418.452 364.199 417.231C364.075 416.504 364.62 413.765 364.257 412.263C364.084 411.528 363.902 411.083 362.912 411.322C359.586 412.131 355.081 412.7 352.828 411.108C352.58 410.934 352.036 411.85 351.961 412.123C351.565 413.657 350.748 417.321 351.342 419.31C351.425 419.607 351.673 419.838 351.978 419.945Z" fill="#373737"/>
<path d="M375.827 413.946C375.827 413.946 374.333 420.382 376.289 420.564C378.245 420.745 390.177 422.412 394.856 419.97C398.388 418.121 392.042 415.233 390.119 414.911C388.048 415.563 387.99 410.926 388.023 410.769C388.593 407.98 386.1 411.462 382.651 411.784C379.334 412.089 375.662 411.792 375.662 411.792L375.827 413.946Z" fill="#373737"/>
<path d="M351.488 417.982C351.488 417.982 358.313 421.291 363.858 418.188" stroke="#FBC172" stroke-miterlimit="10" stroke-linecap="round" stroke-linejoin="round"/>
<path d="M375.822 419.046C375.822 419.046 379.899 419.698 382.152 419.863C384.272 420.028 389.875 419.921 390.75 419.863C391.303 419.83 396.246 419.352 394.596 417.396" stroke="#FBC172" stroke-miterlimit="10" stroke-linecap="round" stroke-linejoin="round"/>
<path d="M422.895 329.075C422.895 329.075 424.462 330.214 424.644 330.94C424.825 331.666 425.791 337.583 425.032 338.846C425.032 338.846 424.677 340.446 424.108 340.661C423.538 340.875 425.659 331.757 422.895 329.075Z" fill="#F6A456"/>
<path d="M255.228 205.741C255.228 205.741 254.444 208.407 253.867 208.86C253.289 209.314 252.192 210.057 251.969 210.404" stroke="#F18A77" stroke-width="0.25" stroke-miterlimit="10" stroke-linecap="round" stroke-linejoin="round"/>
<path d="M308.118 269.974C307.82 270.214 307.581 270.519 307.416 270.866C306.508 272.714 304.28 278.812 304.214 280.595C304.181 281.453 303.785 283.598 304.28 284.911C304.652 285.901 305.361 286.635 305.947 287.114C306.327 287.419 306.896 287.147 306.896 286.652C306.88 284.382 307.045 279.472 308.819 280.009C310.321 280.463 310.915 283.549 311.154 285.62C311.286 286.759 310.709 287.865 309.718 288.442L307.499 289.738C307.21 289.903 307.111 290.266 307.268 290.555C307.565 291.116 308.233 291.372 308.827 291.166C310.007 290.745 311.831 290.101 312.293 289.895C312.796 289.664 310.577 291.454 309.347 292.428C308.844 292.832 308.885 293.625 309.446 293.938C309.949 294.227 310.766 293.724 311.765 293.22C313.952 292.115 315.61 288.566 315.61 288.566C315.61 288.566 311.897 294.285 311.748 294.623C311.575 295.011 311.418 295.391 311.856 295.754C312.045 295.91 312.78 295.704 312.945 295.523C314.199 294.153 319.126 289.028 318.259 288.335C317.269 287.543 313.638 296.331 313.638 296.331C313.638 296.331 314.323 298.774 317.624 292.197C321.593 284.259 320.595 283.046 319.109 275.528C317.632 268.233 312.928 266.129 308.118 269.974Z" fill="#F4A392"/>
<path d="M308.504 283.632C308.504 283.632 310.542 283.128 312.085 283.533C313.628 283.937 312.341 285.117 310.501 284.861" fill="#F18A77"/>
<path d="M312.457 285.447C313.084 285.645 313.291 286.825 312.457 286.949C311.624 287.072 309.742 287.114 309.742 287.114L308.752 285.282C308.752 285.282 310.204 284.737 312.457 285.447Z" fill="#F18A77"/>
<path d="M308.753 287.114C308.753 287.114 311.327 286.899 312.334 287.493C313.011 287.89 312.375 288.665 311.913 288.665C311.451 288.665 307.399 288.459 307.399 288.459L306.979 287.122H308.753V287.114Z" fill="#F18A77"/>
<path d="M307.697 288.467C307.697 288.467 312.632 288.467 312.359 289.201C311.856 290.546 310.37 290.076 309.306 289.993C308.241 289.911 306.715 289.408 306.715 289.408L307.259 288.863" fill="#F18A77"/>
<path d="M318.546 292.304C318.546 292.304 320.246 286.049 318.546 285.076C316.846 284.102 315.658 289.309 316.623 290.745C317.589 292.18 317.094 294.986 317.094 294.986L318.546 292.304Z" fill="#F18A77"/>
<path d="M316.28 304.88C316.28 304.88 315.323 303.881 316.395 302.05C317.476 300.218 318.343 298.873 319.053 298.278C319.053 298.278 320.546 296.975 321.347 296.768C321.982 296.603 322.749 296.562 323.03 296.554C323.104 296.554 323.179 296.57 323.245 296.603L324.284 296.834C318.359 296.521 316.156 304.451 316.28 304.88Z" fill="#F6A456"/>
<path d="M283.791 209.909L278.006 243.841C278.006 243.841 278.798 244.253 280.407 243.412C280.415 243.403 284.129 212.937 283.791 209.909Z" fill="#F6A456"/>
<path d="M286.258 208.597C286.258 208.597 291.564 222.171 291.341 222.089C291.118 222.006 289.435 221.362 288.799 217.443L286.258 208.597Z" fill="#F6A456"/>
<path d="M292.289 223.252L309.363 268.753L299.518 246.291L291.332 224.061L292.289 223.252Z" fill="#F18A77"/>
<path d="M316.047 304.072C316.047 304.072 329.036 317.06 331.206 318.397C333.376 319.734 341.092 326.204 344.417 326.748L344.054 327.384C344.054 327.384 340.167 325.832 338.426 324.702C336.685 323.571 331.074 319.272 331.074 319.272L324.018 312.885L317.318 306.069L316.278 304.88L316.047 304.072Z" fill="#F6A456"/>
<path d="M367.063 268.085C367.063 268.085 360.948 274.736 357.713 275.636C354.47 276.535 345.467 276.469 345.269 277.641C345.071 278.813 350.196 274.637 355.32 273.795C360.445 272.962 367.063 268.085 367.063 268.085Z" fill="#D87C60"/>
<defs>
<filter id="filter0_biiiiii_708_6" x="-126.051" y="-175.956" width="859.102" height="866.912" filterUnits="userSpaceOnUse" color-interpolation-filters="sRGB">
<feFlood flood-opacity="0" result="BackgroundImageFix"/>
<feGaussianBlur in="BackgroundImageFix" stdDeviation="91.5254"/>
<feComposite in2="SourceAlpha" operator="in" result="effect1_backgroundBlur_708_6"/>
<feBlend mode="normal" in="SourceGraphic" in2="effect1_backgroundBlur_708_6" result="shape"/>
<feColorMatrix in="SourceAlpha" type="matrix" values="0 0 0 0 0 0 0 0 0 0 0 0 0 0 0 0 0 0 127 0" result="hardAlpha"/>
<feOffset dy="1.83051"/>
<feGaussianBlur stdDeviation="36.6102"/>
<feComposite in2="hardAlpha" operator="arithmetic" k2="-1" k3="1"/>
<feColorMatrix type="matrix" values="0 0 0 0 0.886275 0 0 0 0 0.92549 0 0 0 0 0.976471 0 0 0 1 0"/>
<feBlend mode="normal" in2="shape" result="effect2_innerShadow_708_6"/>
<feColorMatrix in="SourceAlpha" type="matrix" values="0 0 0 0 0 0 0 0 0 0 0 0 0 0 0 0 0 0 127 0" result="hardAlpha"/>
<feOffset dy="7.32203"/>
<feGaussianBlur stdDeviation="16.4746"/>
<feComposite in2="hardAlpha" operator="arithmetic" k2="-1" k3="1"/>
<feColorMatrix type="matrix" values="0 0 0 0 0.815686 0 0 0 0 0.878431 0 0 0 0 0.945098 0 0 0 1 0"/>
<feBlend mode="normal" in2="effect2_innerShadow_708_6" result="effect3_innerShadow_708_6"/>
<feColorMatrix in="SourceAlpha" type="matrix" values="0 0 0 0 0 0 0 0 0 0 0 0 0 0 0 0 0 0 127 0" result="hardAlpha"/>
<feMorphology radius="87.8644" operator="dilate" in="SourceAlpha" result="effect4_innerShadow_708_6"/>
<feOffset dy="179.39"/>
<feGaussianBlur stdDeviation="91.5254"/>
<feComposite in2="hardAlpha" operator="arithmetic" k2="-1" k3="1"/>
<feColorMatrix type="matrix" values="0 0 0 0 0.886275 0 0 0 0 0.913725 0 0 0 0 0.941176 0 0 0 1 0"/>
<feBlend mode="normal" in2="effect3_innerShadow_708_6" result="effect4_innerShadow_708_6"/>
<feColorMatrix in="SourceAlpha" type="matrix" values="0 0 0 0 0 0 0 0 0 0 0 0 0 0 0 0 0 0 127 0" result="hardAlpha"/>
<feMorphology radius="62.6182" operator="dilate" in="SourceAlpha" result="effect5_innerShadow_708_6"/>
<feOffset dy="-150.102"/>
<feGaussianBlur stdDeviation="109.091"/>
<feComposite in2="hardAlpha" operator="arithmetic" k2="-1" k3="1"/>
<feColorMatrix type="matrix" values="0 0 0 0 0.921424 0 0 0 0 0.951964 0 0 0 0 0.991667 0 0 0 1 0"/>
<feBlend mode="normal" in2="effect4_innerShadow_708_6" result="effect5_innerShadow_708_6"/>
<feColorMatrix in="SourceAlpha" type="matrix" values="0 0 0 0 0 0 0 0 0 0 0 0 0 0 0 0 0 0 127 0" result="hardAlpha"/>
<feMorphology radius="7.32203" operator="dilate" in="SourceAlpha" result="effect6_innerShadow_708_6"/>
<feOffset dy="12.8136"/>
<feGaussianBlur stdDeviation="10.0678"/>
<feComposite in2="hardAlpha" operator="arithmetic" k2="-1" k3="1"/>
<feColorMatrix type="matrix" values="0 0 0 0 0.921569 0 0 0 0 0.945098 0 0 0 0 0.964706 0 0 0 1 0"/>
<feBlend mode="normal" in2="effect5_innerShadow_708_6" result="effect6_innerShadow_708_6"/>
<feColorMatrix in="SourceAlpha" type="matrix" values="0 0 0 0 0 0 0 0 0 0 0 0 0 0 0 0 0 0 127 0" result="hardAlpha"/>
<feMorphology radius="65.8983" operator="dilate" in="SourceAlpha" result="effect7_innerShadow_708_6"/>
<feOffset dy="71.3898"/>
<feGaussianBlur stdDeviation="51.2542"/>
<feComposite in2="hardAlpha" operator="arithmetic" k2="-1" k3="1"/>
<feColorMatrix type="matrix" values="0 0 0 0 0.941176 0 0 0 0 0.964706 0 0 0 0 0.992157 0 0 0 1 0"/>
<feBlend mode="normal" in2="effect6_innerShadow_708_6" result="effect7_innerShadow_708_6"/>
</filter>
</defs>
</svg>
