<svg width="1013" height="1763" viewBox="0 0 1013 1763" fill="none" xmlns="http://www.w3.org/2000/svg">
<path d="M765.362 645.668C864.211 819.967 824.518 1013.54 736.204 1166.22C657.192 1302.82 498.694 1359.26 331.923 1395.02C142.455 1435.66 -78.2651 1509.07 -243.432 1376.33C-407.152 1244.75 -342.158 1028.46 -357.239 841.174C-372.29 654.265 -466.299 432.991 -328.685 317.605C-186.21 198.143 53.7005 263.042 258.885 324.569C457.286 384.062 665.86 470.216 765.362 645.668Z" fill="#FFFBF4"/>
<path d="M398.5 1059C476.096 1059 539 1042.43 539 1022C539 1001.57 476.096 985 398.5 985C320.904 985 258 1001.57 258 1022C258 1042.43 320.904 1059 398.5 1059Z" fill="#F5F1E8"/>
<path d="M319.175 566.403L318.166 619.229L373.3 616.819L375.607 562.39L319.175 566.403Z" fill="#2F2F30"/>
<path d="M337.707 600.579L337.848 612.602L329.979 615.067C329.979 615.067 327.507 631.901 347.916 638.245C347.916 638.245 361.441 639.074 366.408 624.446C366.408 624.446 371.642 618.196 369.17 614.879C368.255 613.651 359.869 612.399 357.858 612.595L357.718 601.533L337.707 600.579Z" fill="#F4A392"/>
<path d="M347.719 897.859L352.96 965.751C352.96 965.751 349.651 971.274 352.96 977.618C352.96 977.618 351.059 988.554 348.853 1008.98C350.402 1008.99 341.203 1019.84 361.518 1036.12C361.518 1036.12 366.485 1041.65 375.317 1020.67L370.349 993.068C370.349 993.068 367.588 974.301 368.973 964.64C368.973 964.64 380.284 917.541 380.01 896.654L347.719 897.859Z" fill="#F4A392"/>
<path d="M340.111 896.968L329.777 967.489C329.777 967.489 332.703 973.223 328.964 979.332C328.964 979.332 329.856 990.299 330.661 1010.83C330.661 1010.83 339.759 1019.74 317.433 1035.35C317.433 1035.35 312.904 1038.68 305.52 1017.15L310.557 993.562C310.557 993.562 314.594 975.03 313.874 965.299C313.874 965.299 307.397 916.595 309.094 895.779L324.45 896.906L340.111 896.968Z" fill="#F4A392"/>
<path d="M348.313 902.233C348.313 902.233 370.662 908.773 379.705 901.122V889.662H349.69L347.719 893.339L348.313 902.233Z" fill="#F18A77"/>
<path d="M339.381 902.045C339.381 902.045 317.658 908.217 309.045 900.426L309.24 888.974L338.262 889.466L340.108 893.174L339.381 902.045Z" fill="#F18A77"/>
<path d="M321.145 718.049L321.114 719.856C321.106 720.286 321.036 720.701 320.903 721.1C320.488 722.32 319.44 723.212 318.212 723.595L305.187 727.632C304.014 727.999 303.052 728.844 302.559 729.971C298.616 738.951 291.294 776.906 290.27 809.628L290.418 860.045C290.426 860.146 290.426 860.248 290.426 860.357C290.387 862.775 289.972 893.001 295.002 895.676C302.191 899.494 353.343 903.687 388.936 895.934C393.778 894.878 394.357 891.444 395.022 886.54C396.985 871.974 397.47 834.426 397.478 834.347C398.159 827.636 403.58 767.848 392.432 736.862C391.908 735.407 390.977 734.132 389.757 733.178L373.244 720.232C372.923 719.981 372.563 719.778 372.18 719.629C371.929 719.535 371.671 719.434 371.444 719.293L362.276 713.848C361.518 713.403 360.649 713.199 359.773 713.27C356.057 713.575 346.115 714.599 343.972 714.811C343.706 714.834 343.447 714.834 343.181 714.811L325.901 713.277C324.298 713.137 322.702 713.88 321.912 715.28C321.435 716.133 321.161 717.134 321.145 718.049Z" fill="#373737"/>
<path d="M325.662 713.468C325.662 713.468 341.73 708.798 345.97 709.697C350.209 710.605 377.87 714.594 381.742 717.95C385.614 721.298 389.76 733.18 389.76 733.18C389.76 733.18 393.132 738.273 394.157 742.356C395.189 746.44 387.273 742.356 382.29 740.682C377.307 739.008 369.015 734.276 362.467 735.903C355.92 737.53 327.211 726.273 327.211 726.273L325.662 713.468Z" fill="#2D2C2C"/>
<path d="M325.662 713.465L374.232 717.916L370.274 631.258C370.274 631.258 352.048 649.61 328.971 631.258L325.662 713.465Z" fill="#FBC172"/>
<path d="M366.683 649.156L364.039 701.098L383.204 694.058L366.683 649.156Z" fill="#F6A456"/>
<path d="M331.339 638.261C331.339 638.261 331.902 698.197 331.926 702.007C331.949 705.817 333.232 714.163 333.232 714.163L324.385 713.248C324.393 713.248 329.07 640.787 331.339 638.261Z" fill="#F6A456"/>
<path d="M357.857 612.602C357.857 612.602 361.784 615.489 362.567 618.07C363.349 620.652 362.793 625.079 362.567 626.464C362.355 627.747 360.455 633.684 360.455 633.684C360.455 633.684 364.46 629.953 365.477 627.387C365.477 627.387 364.96 617.843 364.64 617.194C364.64 617.194 362.872 611.883 357.857 612.602Z" fill="#F18A77"/>
<path d="M337.849 612.602C337.849 612.602 333.844 619.986 332.491 626.823C332.491 626.823 331.826 626.51 331.951 625.775C332.123 624.734 332.209 622.497 333.187 619.227C333.179 619.227 334.337 613.399 337.849 612.602Z" fill="#F18A77"/>
<path d="M333.568 621.474C333.568 621.474 341.735 633.466 355.151 632.159L347.813 634.193L332.27 624.783L333.568 621.474Z" fill="#F18A77"/>
<path d="M330.048 632.588C330.048 632.588 350.246 654.664 368.738 632.588V621.504C368.738 621.504 351.583 648.781 329.336 618.562L330.048 632.588Z" fill="#F6A456"/>
<path d="M359.857 612.468C359.857 612.468 363.855 613.485 364.778 617.717C365.701 621.949 368.744 685.961 368.744 685.961L365.216 722.516C365.216 722.516 379.672 730.832 388.785 734.837C390.561 735.611 392.493 734.141 392.227 732.224L390.373 718.863L389.701 652.512L408.271 680.141C408.271 680.141 424.707 677.411 427.804 680.141C427.804 680.141 393.643 621.05 385.914 619.947C385.907 619.939 363.166 611.694 359.857 612.468Z" fill="#E2ECF9"/>
<path d="M349.85 721.312L389.315 652.88L426.847 642.116C426.847 642.116 431.815 643.861 430.985 645.058C430.156 646.254 411.695 680.689 411.695 680.689L385.724 724.081L352.509 725.184L349.85 721.312Z" fill="#4B4A4A"/>
<path d="M350.943 721.664L389.728 655.641L425.446 644.705" stroke="#BFBABA" stroke-width="2" stroke-miterlimit="10" stroke-linecap="round" stroke-linejoin="round"/>
<path d="M383.09 686.501C383.09 686.501 406.754 676.3 407.755 676.785C409.265 677.528 409.194 678.835 408.952 679.781L387.057 687.627L385.171 688.277L361.164 732.631L359.857 731.254L383.09 686.501Z" fill="#BFBABA"/>
<path d="M361.17 732.632L387.391 725.185L408.958 679.282L385.068 688.2L361.17 732.632Z" fill="#FBC172"/>
<path d="M408.606 679.407C408.606 679.407 409.693 677.999 407.448 676.794L383.354 686.721L359.98 731.442" stroke="#F6A456" stroke-miterlimit="10" stroke-linecap="round" stroke-linejoin="round"/>
<path d="M412.295 679.571C412.295 679.571 422.942 677.733 427.612 679.821C427.612 679.821 431.328 683.576 424.389 694.035C423.458 695.435 422.301 696.671 420.971 697.688C415.55 701.834 399.662 713.638 392.105 715.75C382.906 718.324 369.256 717.847 361.159 714.35C361.159 714.35 353.462 710.149 353.642 702.796C353.642 702.796 353.65 699.745 355.12 700.848C355.12 700.848 355.488 697.172 357.326 696.984C359.165 696.796 357.115 695.107 359.9 694.958C359.9 694.958 360.033 691.813 362.168 693.041C362.99 693.511 363.545 694.332 363.772 695.255C364.194 696.953 365.469 700.277 369.123 701.623C372.236 702.773 376.452 704.893 378.478 704.525C380.505 704.157 376.64 697.719 374.982 696.796C373.323 695.873 373.511 691.829 378.658 694.958C383.806 698.087 386.935 704.893 386.387 706.551C385.855 708.209 398.316 705.698 412.295 679.571Z" fill="#F4A392"/>
<path d="M337.752 602.214V610.647C337.752 610.647 345.215 608.511 354.531 602.214H337.752Z" fill="#F18A77"/>
<path d="M370.502 569.985C370.502 589.791 360.371 605.851 347.879 605.851C344.319 605.851 340.956 604.553 337.96 602.229C330.434 596.402 325.256 584.151 325.256 569.985C325.256 550.178 335.386 534.118 347.879 534.118C360.371 534.118 370.502 550.178 370.502 569.985Z" fill="#F4A392"/>
<path d="M370.502 569.984C370.494 573.864 370.134 577.744 369.321 581.538C368.515 585.332 367.295 589.047 365.535 592.513C363.774 595.963 361.506 599.209 358.526 601.728C357.039 602.98 355.381 604.043 353.582 604.794C351.775 605.53 349.835 605.929 347.879 605.952C343.952 605.976 340.142 604.302 337.209 601.759C335.707 600.515 334.377 599.076 333.22 597.504C332.609 596.745 332.109 595.908 331.561 595.102C331.084 594.25 330.552 593.436 330.145 592.552C329.23 590.831 328.526 589.008 327.853 587.186C327.243 585.34 326.688 583.47 326.297 581.561C325.475 577.76 325.068 573.872 325.053 569.976C325.076 566.088 325.452 562.193 326.289 558.391C327.11 554.589 328.354 550.865 330.13 547.4C331.905 543.95 334.197 540.704 337.193 538.185C338.687 536.933 340.354 535.885 342.161 535.134C343.976 534.407 345.916 534.016 347.871 534C349.827 534.016 351.767 534.422 353.574 535.158C355.373 535.909 357.031 536.973 358.518 538.224C361.498 540.743 363.767 543.989 365.527 547.439C367.287 550.905 368.515 554.62 369.313 558.414C370.134 562.224 370.494 566.112 370.502 569.984ZM370.502 569.984C370.478 566.104 370.103 562.224 369.274 558.438C368.452 554.652 367.216 550.944 365.449 547.494C363.681 544.06 361.404 540.829 358.432 538.342C356.953 537.106 355.303 536.057 353.519 535.322C351.728 534.602 349.811 534.211 347.887 534.203C345.962 534.219 344.046 534.618 342.262 535.345C340.487 536.089 338.844 537.137 337.373 538.381C334.424 540.876 332.163 544.107 330.411 547.541C328.659 550.991 327.439 554.691 326.641 558.469C325.827 562.247 325.475 566.12 325.459 569.984C325.459 573.848 325.843 577.713 326.641 581.499C327.024 583.392 327.564 585.254 328.158 587.092C328.823 588.907 329.512 590.714 330.411 592.427C330.818 593.303 331.342 594.117 331.811 594.961C332.351 595.759 332.844 596.596 333.446 597.347C334.588 598.904 335.903 600.335 337.381 601.571C340.275 604.098 344.015 605.757 347.895 605.757C349.819 605.749 351.743 605.358 353.535 604.638C355.318 603.903 356.969 602.854 358.447 601.618C361.42 599.131 363.696 595.9 365.464 592.466C367.232 589.016 368.476 585.308 369.289 581.522C370.103 577.744 370.478 573.864 370.502 569.984Z" fill="#F4A392"/>
<path d="M329.828 557.922C329.828 557.922 336.407 566.637 348.203 567.708C348.203 567.708 358.787 568.326 344.91 563.531C344.91 563.531 358.091 568.139 360.055 568.264C361.47 568.35 364.232 568.702 366.023 568.796C366.876 568.843 367.728 568.678 368.511 568.326L369.88 567.708C369.88 567.708 365.468 560.684 364.138 561.403C362.808 562.115 364.717 565.987 364.717 565.987L341.233 557.32L338.957 555.356L340.123 561.255L329.828 557.922Z" fill="#F18A77"/>
<path d="M302.567 729.972C302.567 729.972 295.401 752.579 295.049 762.569C295.049 762.569 291.31 791.129 290.919 797.41C290.528 803.692 290.277 830.101 290.277 830.101L290.41 865.138L291.818 887.472C291.818 887.472 292.468 893.785 294.173 894.919C295.878 896.053 316.436 898.627 321.74 898.807C321.74 898.807 305.743 894.223 299.86 888.919C292.562 882.34 292.069 746.97 302.934 745.077C302.934 745.077 301.331 745.695 306.314 742.864C308.629 741.549 306.681 745.633 313.323 742.496C319.964 739.359 332.136 731.435 332.136 731.435L321.122 719.857L302.567 729.972Z" fill="#2D2C2C"/>
<path d="M333.77 612.71L314.48 619.547C313.846 619.773 313.322 620.235 313.025 620.837C313.025 620.837 296.347 652.081 296.339 652.104L284.3 685.334C283.33 686.703 284.691 687.83 286.076 688.002C291.075 688.628 295.166 691.921 300.211 694.315C300.97 694.675 301.917 696.474 302.237 695.691L312.54 668C312.876 667.163 313.87 666.857 314.644 667.311C315.027 667.538 315.536 667.741 316.216 667.898C316.873 668.054 317.343 668.633 317.343 669.314V687.134C317.343 691.068 316.521 694.964 314.926 698.562C311.859 705.493 306.54 717.806 303.043 727.686C301.643 731.636 306.141 735.07 309.591 732.692L323.476 723.133C323.679 722.992 323.922 722.914 324.172 722.883C326.839 722.57 328.881 720.294 328.842 717.571C328.607 698.954 327.692 615.369 336.563 613.007C338.073 612.6 335.249 612.193 333.77 612.71Z" fill="#E3ECF9"/>
<path d="M284.114 686.821C284.114 686.821 280.773 690.866 285.663 701.004C287.665 705.165 294.275 709.741 301.104 714.537C310.296 720.99 322.366 725.175 322.366 725.175C322.366 725.175 327.498 717.908 325.659 717.908C323.915 717.908 319.519 711.478 308.231 703.155C306.924 702.193 305.767 701.043 304.812 699.736C304.179 698.868 303.334 697.687 302.262 696.154C301.55 695.137 299.141 693.666 296.333 692.274C294.533 691.382 293.125 690.271 291.107 689.504C290.372 689.223 289.261 688.589 288.44 688.503C285.162 688.151 283.949 687.165 284.153 686.9L284.114 686.821Z" fill="#F4A392"/>
<path d="M286.454 687.878C286.54 687.831 286.611 687.745 286.642 687.651C287.753 684.82 302.6 649.031 305.025 646.512C305.025 646.512 319.043 620.518 327.656 618.578C327.719 618.562 327.781 618.539 327.836 618.492C328.477 617.999 332.803 614.682 335.486 613.376C335.987 613.133 335.768 612.39 335.22 612.461C334.102 612.609 332.295 613.102 329.338 614.276L319.685 617.702C319.646 617.718 319.606 617.733 319.575 617.757L313.184 622.09C312.597 622.489 312.089 622.99 311.69 623.577C310.712 625.008 308.796 627.981 307.388 631.29C307.247 631.618 307.098 631.947 306.926 632.26L299.479 646.215C299.416 646.333 299.354 646.458 299.299 646.583L296.647 651.527C296.546 651.722 294.676 656.737 294.676 656.737C294.621 656.854 294.574 656.971 294.535 657.089L284.358 686.11C284.194 686.58 284.319 687.104 284.694 687.432C285.14 687.855 285.805 688.23 286.454 687.878Z" fill="#D0E0F1"/>
<path d="M336.997 612.867C336.997 612.867 333.969 612.718 332.084 624.405L330.011 644.501L323.761 641.443L322.807 621.487C322.807 621.487 333.242 610.301 336.997 612.867Z" fill="#D0E0F1"/>
<path d="M359.857 612.655C359.857 612.655 365.912 613.101 365.192 623.677L366.155 636.334L370.496 622.144L367.586 613.923C367.586 613.915 361.391 612.147 359.857 612.655Z" fill="#D0E0F1"/>
<path d="M314.016 631.97C314.016 631.97 317.943 645.707 321.165 647.592C324.396 649.469 330.388 646.802 330.388 646.802L319.304 633.245L316.175 629.381L314.016 631.97Z" fill="#D0E0F1"/>
<path d="M320.184 729.057C320.184 729.057 329.672 737.334 331.808 739.07C334.444 741.214 344.84 742.066 346.929 742.144C348.986 742.223 355.471 739.719 354.861 735.096C354.243 730.465 345.928 726.272 345.928 726.272L320.184 729.057Z" fill="#2D2C2C"/>
<path d="M366.682 645.541C366.682 645.541 372.157 645.228 374.645 642.827C377.133 640.433 382.022 623.106 382.483 619.226C382.483 619.226 383.547 619.078 380.801 618.139C378.048 617.2 371.328 625.954 371.328 625.954L366.682 645.541Z" fill="#D0E0F1"/>
<path d="M328.711 554.723C326.591 559.541 317.368 584.057 327.811 625.032C327.913 625.446 327.365 625.689 327.13 625.337L325.472 622.842C325.472 622.842 325.441 639.519 331.785 647.154C331.941 647.342 331.8 647.616 331.558 647.592C329.243 647.318 323.117 645.644 321.389 643.634C321.389 643.634 304.461 623.765 310.445 579.606C310.445 579.606 311.642 538.123 332.176 538.757C332.223 538.757 332.262 538.749 332.301 538.725C333.31 538.107 347.759 529.542 362.269 537.302C366.736 539.688 370.248 543.536 372.4 548.12C377.445 558.884 387.012 584.487 381.583 612.218C381.458 612.86 381.388 613.509 381.31 614.158C380.746 618.946 378.415 642.015 362.621 647.49C362.402 647.569 362.199 647.342 362.285 647.131C363.357 644.635 367.675 634.083 368.778 623.084C368.801 622.826 368.488 622.685 368.308 622.873L364.976 626.432C364.788 626.635 364.444 626.456 364.522 626.182C366.173 620.096 374.332 588.946 372.353 575.03C372.353 575.014 372.353 575.014 372.345 574.999C372.22 574.584 368.973 564.102 365.727 561.215C362.418 558.274 365.359 564 367.565 566.003C369.771 568.005 341.258 565.08 339.967 554.965C339.967 554.965 340.452 560.91 347.602 564.61C347.884 564.759 347.735 565.181 347.43 565.111C342.189 563.906 330.392 560.566 329.211 554.801C329.164 554.527 328.82 554.48 328.711 554.723Z" fill="#2F2F30"/>
<path d="M329.392 556.686C329.392 556.686 327.781 560.105 327.695 564.548C327.523 573.669 329.783 587.398 331.708 590.808C334.492 595.752 335.916 601.744 345.483 604.06C345.663 604.107 351.78 604.834 354.534 604.279C354.534 604.279 350.419 607.259 343.817 605.429C340.993 604.647 338.271 602.902 336.135 600.876C333.272 598.162 331.418 594.931 330.972 594.172C330.972 594.172 329.854 592.154 328.555 588.649C326.936 584.277 325.168 577.604 325.16 571.706C325.16 571.706 325.16 569.758 325.16 567.231C325.16 565.127 325.895 562.694 326.388 561.004C326.459 560.77 326.521 560.504 326.568 560.3C326.686 559.808 326.85 559.44 327.03 558.861C327.468 557.469 327.765 556.538 328.039 556.1C328.36 555.591 328.876 554.027 328.892 554.23C328.923 554.535 329.392 556.686 329.392 556.686Z" fill="#F18A77"/>
<path d="M327.676 568.794C328.435 567.816 329.522 567.088 330.695 566.635C331.876 566.165 333.167 566.009 334.427 566.056C335.694 566.126 336.93 566.455 338.088 566.916C338.667 567.151 339.206 567.464 339.762 567.738C340.278 568.09 340.794 568.418 341.287 568.794C340.708 568.575 340.153 568.317 339.59 568.082C339.011 567.894 338.447 567.667 337.876 567.487C337.29 567.354 336.734 567.128 336.14 567.065C335.85 567.018 335.561 566.94 335.264 566.908L334.38 566.838C333.206 566.775 332.025 566.893 330.883 567.214C329.764 567.542 328.654 568.035 327.676 568.794Z" fill="#622E20"/>
<path d="M354.096 569.287C354.854 568.309 355.942 567.582 357.115 567.128C358.296 566.658 359.587 566.502 360.847 566.549C362.114 566.619 363.35 566.948 364.508 567.409C365.086 567.644 365.626 567.957 366.182 568.231C366.698 568.583 367.214 568.911 367.707 569.287C367.128 569.068 366.573 568.81 366.009 568.575C365.431 568.387 364.867 568.16 364.296 567.981C363.71 567.848 363.154 567.621 362.56 567.558C362.27 567.511 361.981 567.433 361.684 567.402L360.8 567.331C359.626 567.269 358.445 567.386 357.303 567.707C356.184 568.035 355.074 568.528 354.096 569.287Z" fill="#622E20"/>
<path d="M348.321 601.33C350.274 601.33 351.857 600.861 351.857 600.282C351.857 599.703 350.274 599.233 348.321 599.233C346.368 599.233 344.785 599.703 344.785 600.282C344.785 600.861 346.368 601.33 348.321 601.33Z" fill="#F18A77"/>
<path d="M348.118 589.204C349.146 589.204 349.979 588.958 349.979 588.656C349.979 588.354 349.146 588.108 348.118 588.108C347.089 588.108 346.256 588.354 346.256 588.656C346.256 588.958 347.089 589.204 348.118 589.204Z" fill="#F18A77"/>
<path d="M335.503 587.978C338.32 587.978 340.603 587.302 340.603 586.468C340.603 585.634 338.32 584.958 335.503 584.958C332.686 584.958 330.402 585.634 330.402 586.468C330.402 587.302 332.686 587.978 335.503 587.978Z" fill="#F18A77"/>
<path d="M360.909 587.044C363.726 587.044 366.009 586.368 366.009 585.534C366.009 584.7 363.726 584.024 360.909 584.024C358.092 584.024 355.809 584.7 355.809 585.534C355.809 586.368 358.092 587.044 360.909 587.044Z" fill="#F18A77"/>
<path d="M349.807 574.828C348.986 574.608 347.077 574.256 345.552 575.14C345.364 575.25 345.223 575.438 345.153 575.641C344.605 577.159 342.212 583.683 341.406 584.496C340.522 585.38 331.244 584.887 327.451 584.043C327.185 583.98 326.966 583.816 326.833 583.581C326.019 582.149 323.305 576.752 325.362 571.659C325.487 571.346 325.784 571.143 326.121 571.112C328.726 570.901 340.71 570.15 345.497 572.864H349.588C350.034 572.864 354.235 570.588 361.917 570.854C366.078 570.994 368.855 571.104 370.068 571.253C370.475 571.3 370.772 571.644 370.78 572.05L370.842 575.359C370.842 575.359 370.475 582.572 368.081 583.393C366.008 584.113 358.209 584.277 356.159 584.308C355.831 584.316 355.526 584.183 355.315 583.933C354.478 582.955 352.256 580.116 350.371 575.344C350.277 575.086 350.073 574.89 349.807 574.828Z" stroke="#2F2F30" stroke-miterlimit="10"/>
<path d="M338.607 592.271C338.607 592.271 339.789 592.317 340.336 592.818C341.205 593.632 354.675 593.812 356.623 592.818C357.773 592.231 358.039 592.513 358.039 592.513C358.039 592.513 356.482 593.726 355.981 594.015C355.841 594.101 355.379 594.672 354.503 595.368C352.18 597.214 349.121 597.95 345.233 596.909C343.34 596.401 341.635 595.243 340.219 593.663C340.047 593.475 339.867 593.295 339.671 593.131L338.607 592.271Z" fill="#EE6F5A"/>
<path d="M339.555 592.819C340.9 593.453 342.308 593.938 343.74 594.313C345.171 594.681 346.634 594.931 348.105 594.986C349.575 595.096 351.054 594.931 352.485 594.626L353.557 594.368L354.597 593.985C354.77 593.922 354.95 593.868 355.122 593.797L355.622 593.555L356.624 593.07C355.372 593.86 354.034 594.587 352.556 594.924C351.101 595.299 349.583 595.463 348.081 595.385C346.579 595.291 345.093 595.041 343.654 594.611C342.23 594.165 340.83 593.594 339.555 592.819Z" fill="#D85843"/>
<path d="M342.082 580.005C342.441 579.81 342.645 579.403 342.606 578.996C342.434 577.306 341.753 573.098 339.281 572.887C338.522 572.824 337.779 572.605 337.012 572.566C334.384 572.449 332.241 572.151 329.534 575.499L327.813 578.065C327.594 578.394 327.696 578.84 328.032 579.035C329.996 580.146 336.277 583.181 342.082 580.005Z" fill="#FAEFEF" stroke="#2F2F31" stroke-width="0.2" stroke-miterlimit="10"/>
<path d="M339.914 576.905C340.04 575.017 338.478 573.375 336.426 573.239C334.374 573.102 332.609 574.522 332.483 576.41C332.358 578.298 333.919 579.94 335.971 580.076C338.023 580.213 339.788 578.793 339.914 576.905Z" fill="#262D1D" stroke="#262D1D" stroke-width="0.25" stroke-miterlimit="10"/>
<path d="M336.439 577.988C337.165 577.988 337.753 577.399 337.753 576.674C337.753 575.948 337.165 575.359 336.439 575.359C335.713 575.359 335.125 575.948 335.125 576.674C335.125 577.399 335.713 577.988 336.439 577.988Z" fill="#2F2F31" stroke="#2F2F31" stroke-miterlimit="10"/>
<path d="M338.505 576.148C339.084 576.148 339.553 575.679 339.553 575.1C339.553 574.521 339.084 574.052 338.505 574.052C337.926 574.052 337.457 574.521 337.457 575.1C337.457 575.679 337.926 576.148 338.505 576.148Z" fill="#FAEFEF"/>
<path d="M334.069 578.268C334.428 578.268 334.718 577.978 334.718 577.619C334.718 577.26 334.428 576.97 334.069 576.97C333.711 576.97 333.42 577.26 333.42 577.619C333.42 577.978 333.711 578.268 334.069 578.268Z" fill="#FAEFEF"/>
<path d="M353.978 579.699C353.618 579.503 353.415 579.096 353.454 578.689C353.626 577 354.307 572.791 356.779 572.58C357.537 572.517 358.281 572.298 359.047 572.259C361.676 572.142 363.819 571.845 366.526 575.193L368.246 577.759C368.466 578.087 368.364 578.533 368.027 578.729C366.064 579.839 359.782 582.875 353.978 579.699Z" fill="#FAEFEF" stroke="#2F2F31" stroke-width="0.2" stroke-miterlimit="10"/>
<path d="M360.399 579.62C362.378 579.488 363.883 577.903 363.762 576.08C363.641 574.256 361.938 572.885 359.96 573.016C357.981 573.148 356.475 574.733 356.597 576.557C356.718 578.38 358.42 579.751 360.399 579.62Z" fill="#262D1D" stroke="#262D1D" stroke-width="0.25" stroke-miterlimit="10"/>
<path d="M359.931 577.619C360.636 577.619 361.206 577.048 361.206 576.343C361.206 575.639 360.636 575.068 359.931 575.068C359.227 575.068 358.656 575.639 358.656 576.343C358.656 577.048 359.227 577.619 359.931 577.619Z" fill="#2F2F31" stroke="#2F2F31" stroke-miterlimit="10"/>
<path d="M357.933 575.842C358.49 575.842 358.942 575.391 358.942 574.833C358.942 574.276 358.49 573.824 357.933 573.824C357.376 573.824 356.924 574.276 356.924 574.833C356.924 575.391 357.376 575.842 357.933 575.842Z" fill="#FAEFEF"/>
<path d="M362.218 577.892C362.563 577.892 362.843 577.612 362.843 577.266C362.843 576.921 362.563 576.641 362.218 576.641C361.872 576.641 361.592 576.921 361.592 577.266C361.592 577.612 361.872 577.892 362.218 577.892Z" fill="#FAEFEF"/>
<path d="M325.691 571.566C325.691 571.566 340.734 570.948 344.317 573.013L345.373 573.553L349.894 573.397C350.043 573.404 350.333 573.436 350.458 573.342L353.289 572.27C353.649 572.012 358.812 571.48 359.156 571.48H363.349C363.365 571.48 363.381 571.48 363.388 571.48L369.654 571.816C370.139 571.809 370.523 572.223 370.468 572.708L369.443 581.868" stroke="#2F2F30" stroke-miterlimit="10"/>
<path d="M326.512 582.968C326.512 582.968 324.681 576.193 325.416 571.562" stroke="#2F2F30" stroke-miterlimit="10"/>
<path d="M345.031 574.341L350.429 574.146" stroke="#2F2F30" stroke-width="2" stroke-miterlimit="10"/>
<path d="M346.526 577.986C346.682 578.033 346.721 578.221 346.76 578.362C346.799 578.51 346.815 578.659 346.831 578.816C346.854 579.121 346.862 579.418 346.862 579.723C346.862 580.325 346.807 580.928 346.752 581.53C346.643 582.735 346.463 583.924 346.228 585.105C346.111 585.699 345.986 586.286 345.822 586.873C345.743 587.162 345.657 587.459 345.556 587.749C345.509 587.898 345.446 588.038 345.376 588.195C345.29 588.375 345.219 588.453 345.204 588.539C345.118 588.914 345.556 589.431 345.986 589.783C346.44 590.15 346.925 590.495 347.441 590.815C346.862 590.635 346.299 590.393 345.782 590.057C345.524 589.884 345.274 589.697 345.047 589.454C344.828 589.22 344.609 588.868 344.679 588.445C344.695 588.343 344.726 588.242 344.773 588.156L344.867 587.968C344.922 587.843 344.969 587.71 345.016 587.577C345.11 587.303 345.188 587.021 345.258 586.732C345.399 586.161 345.532 585.582 345.657 584.995C345.9 583.83 346.127 582.656 346.338 581.483C346.44 580.896 346.518 580.302 346.596 579.715C346.635 579.418 346.666 579.121 346.674 578.823C346.682 578.675 346.682 578.526 346.666 578.377C346.666 578.237 346.666 578.057 346.526 577.986Z" fill="#EE6F5A"/>
<path d="M335.665 546.548C335.446 545.554 336.143 544.577 337.144 544.404C339.897 543.935 346.257 543.387 351.436 546.845C358.257 551.39 361.636 561.536 363.975 563.624C366.314 565.713 354.017 562.576 347.869 558.211C342.643 554.496 336.471 550.209 335.665 546.548Z" fill="#3F3F3F"/>
<path d="M330.934 552.532C330.934 552.156 331.262 551.867 331.63 551.882C332.655 551.929 334.978 552.234 336.558 553.885C338.647 556.052 339.053 559.955 339.726 560.886C340.399 561.817 336.237 559.728 334.383 557.679C332.803 555.935 330.934 553.908 330.934 552.532Z" fill="#3F3F3F"/>
<path d="M330.707 543.521C331.615 543.24 331.411 544.593 330.934 545.414C328.697 549.193 321.813 561.599 320.397 567.615C318.794 574.436 320.069 596.324 320.522 600.141C320.859 602.973 321.985 611.014 322.564 615.145C322.595 615.379 322.259 615.45 322.196 615.223C319.685 606.454 311.918 576.102 319.24 559.198C324.301 547.503 328.893 544.085 330.707 543.521Z" fill="#3F3F3F"/>
<path d="M313.589 601.113C313.808 600.362 314.895 600.417 315.028 601.183C316.342 608.38 314.801 617.72 323.75 634.797C324.689 636.588 325.244 638.247 326.597 640.695C327.325 642.009 327.935 643.371 327.693 643.832C327.262 644.63 307.182 623.22 313.589 601.113Z" fill="#3F3F3F"/>
<path d="M377.43 592.318C377.133 591.598 376.061 591.771 376.007 592.545C375.475 599.843 378.017 608.957 370.961 626.902C370.226 628.779 369.85 630.492 368.763 633.074C368.184 634.458 367.715 635.874 368.012 636.304C368.528 637.055 386.184 613.603 377.43 592.318Z" fill="#3F3F3F"/>
<path d="M341.415 537.552C346.038 535.862 358.5 533.234 370.085 547.885C370.601 548.535 371.016 549.254 371.352 550.013C371.649 550.686 372.048 551.578 372.447 552.493C372.768 553.22 371.829 553.838 371.289 553.259C367.558 549.223 360.901 543.184 358.03 541.322C354.354 538.936 346.656 537.622 341.525 538.052C341.227 538.068 341.133 537.653 341.415 537.552Z" fill="#3F3F3F"/>
<path d="M310.911 650.416C310.629 652.825 310.559 655.219 310.801 657.542C311.059 659.858 311.662 662.134 312.929 663.973C314.157 665.834 316.035 667.203 318.201 667.986C320.368 668.791 322.746 669.143 325.164 669.347C322.778 669.793 320.267 669.8 317.826 669.151C316.606 668.838 315.417 668.322 314.353 667.587C313.289 666.851 312.358 665.913 311.63 664.841C310.183 662.666 309.612 660.085 309.589 657.613C309.565 655.133 310.003 652.677 310.911 650.416Z" fill="#D0E0F1"/>
<path d="M384.079 649.134C384.83 651.434 385.166 653.874 385.096 656.315C385.025 658.748 384.439 661.259 383.038 663.347C381.646 665.436 379.448 666.938 377.07 667.572C374.7 668.252 372.228 668.346 369.834 668.064C370.436 668.033 371.039 668.01 371.641 667.994C372.236 667.931 372.838 667.885 373.425 667.806C374.606 667.626 375.779 667.423 376.89 667.001C379.119 666.257 381.106 664.849 382.389 662.909C383.703 660.985 384.29 658.63 384.501 656.276C384.611 655.095 384.603 653.898 384.517 652.701C384.462 651.512 384.306 650.323 384.079 649.134Z" fill="#D0E0F1"/>
<path d="M321.32 718.465C321.383 717.886 328.392 716.987 340.212 720.843C340.212 720.843 343.818 722.095 347.878 725.998C347.956 726.077 351.836 731.466 346.517 728.392C338.694 723.871 340.126 723.996 340.126 723.996C340.126 723.996 346.916 731.052 351.437 734.924C351.954 735.37 352.36 736.997 350.483 736.528C347.988 735.902 343.834 732.679 339.492 729.448L350.944 738.632C350.944 738.632 352.243 742.402 336.864 732.734C336.864 732.734 346.001 738.827 346.853 739.657C347.393 740.181 348.394 743.568 333.367 734.134L340.869 739.571C341.276 739.868 341.072 740.517 340.564 740.517C339.211 740.509 336.488 739.758 331.341 736.011C330.418 735.339 329.589 734.541 328.861 733.649C327.438 731.897 324.997 728.783 323.847 726.804C323.331 725.905 322.58 725.169 321.696 724.622L319.771 723.44L321.32 718.465Z" fill="#F4A392"/>
<path d="M339.264 723.111C340.852 724.253 342.393 725.419 343.981 726.514C344.779 727.062 345.576 727.594 346.406 728.086C347.235 728.571 348.08 729.041 348.979 729.424C347.039 729.08 345.264 728.086 343.652 726.999C342.048 725.873 340.547 724.59 339.264 723.111Z" fill="#F18A77"/>
<path d="M336.994 727.508C337.307 727.531 337.565 727.742 337.839 727.891L338.621 728.392L340.139 729.456C341.148 730.167 342.126 730.918 343.111 731.654L346.061 733.86C347.054 734.579 348.055 735.291 349.135 735.894C347.946 735.51 346.866 734.877 345.81 734.235C344.754 733.586 343.745 732.858 342.759 732.123C341.774 731.372 340.804 730.613 339.865 729.808L338.449 728.611L337.745 728.008C337.503 727.836 337.284 727.586 336.994 727.508Z" fill="#F18A77"/>
<path d="M335.834 732.262C336.1 732.223 336.35 732.372 336.593 732.458C336.835 732.56 337.078 732.669 337.312 732.779L338.713 733.49C339.644 733.975 340.543 734.5 341.443 735.024L344.126 736.619C345.018 737.151 345.917 737.683 346.825 738.2C345.816 737.902 344.853 737.472 343.907 737.018C342.96 736.565 342.045 736.048 341.138 735.532C340.238 735 339.346 734.46 338.47 733.882L337.156 733.029C336.937 732.88 336.726 732.739 336.499 732.599C336.296 732.474 336.084 732.286 335.834 732.262Z" fill="#F18A77"/>
<path d="M334.051 734.47C334.888 734.759 335.654 735.189 336.429 735.596C337.195 736.011 337.954 736.449 338.705 736.871L343.219 739.507C341.521 739.038 339.933 738.24 338.416 737.38C337.657 736.942 336.914 736.48 336.194 735.987C335.459 735.51 334.778 734.955 334.051 734.47Z" fill="#F18A77"/>
<path d="M313.184 667.343C312.151 669.103 310.149 674.266 306.957 683.004L302.232 695.692L311.197 667.946C311.369 667.406 311.831 667.007 312.386 666.913L312.824 666.835C313.114 666.788 313.333 667.093 313.184 667.343Z" fill="#D0E0F1"/>
<path d="M283.998 686.454C283.998 686.454 283.231 687.737 283.004 688.84C282.777 689.943 298.947 696.772 302.264 696.154C302.264 696.154 302.733 695.552 302.944 693.8C303.155 692.016 286.141 685.664 283.998 686.454Z" fill="#D0E0F1"/>
<path d="M283.543 689.458C283.418 689.364 283.238 689.411 283.199 689.559C283.074 689.982 282.918 690.944 283.09 692.868C283.356 695.755 300.839 697.75 302.826 696.967L302.255 696.154C303.131 696.928 287.314 692.477 283.543 689.458Z" fill="#F18A77"/>
<path d="M317.241 668.321V689.481C317.241 689.481 316.303 696.256 315.153 698.024L311.734 705.862L313.713 707.481C313.713 707.481 319.768 695.34 319.917 689.81C320.073 684.045 319.361 669.205 319.361 669.205L317.241 668.321Z" fill="#D0E0F1"/>
<path d="M303.059 730.683C303.059 730.683 302.097 730.057 303.794 725.56L306.681 718.042L321.004 724.801C321.004 724.801 311.867 722.227 308.55 720.506C308.073 720.256 307.486 720.451 307.236 720.929C305.961 723.377 302.628 729.901 303.059 730.683Z" fill="#D0E0F1"/>
<path d="M370.906 645.073L373.159 680.9L368.747 688.551L366.682 645.542C366.682 645.542 370.577 644.032 370.906 645.073Z" fill="#D0E0F1"/>
<path d="M402.18 638.9L407.766 647.583L388.631 653.059C388.631 653.059 387.529 655.977 385.549 659.403L384.697 649.484C384.619 648.577 385.041 647.701 385.808 647.2C389.171 644.994 398.504 639.088 402.18 638.9Z" fill="#D0E0F1"/>
<path d="M359.891 694.896C359.914 695.936 360.102 696.945 360.376 697.915C360.665 698.885 361.033 699.832 361.487 700.731C361.964 701.623 362.496 702.491 363.106 703.305C363.708 704.134 364.397 704.893 365.077 705.675C364.663 705.37 364.256 705.041 363.849 704.705C363.489 704.33 363.083 703.985 362.754 703.586C362.042 702.812 361.471 701.92 360.963 700.997C360.501 700.051 360.126 699.049 359.938 698.017C359.75 696.984 359.68 695.92 359.891 694.896Z" fill="#F18A77"/>
<path d="M357.959 696.763C357.998 697.748 358.162 698.703 358.397 699.634C358.647 700.564 358.952 701.472 359.351 702.348C359.758 703.216 360.204 704.069 360.744 704.875C361.26 705.696 361.87 706.447 362.473 707.229C362.089 706.916 361.722 706.596 361.362 706.251C361.033 705.884 360.673 705.54 360.384 705.133C359.742 704.366 359.257 703.482 358.827 702.59C358.42 701.675 358.123 700.713 357.967 699.727C357.802 698.75 357.756 697.733 357.959 696.763Z" fill="#F18A77"/>
<path d="M355.729 699.082C355.768 699.958 355.94 700.795 356.159 701.624C356.386 702.446 356.675 703.244 357.035 704.01C357.411 704.769 357.817 705.52 358.302 706.216C358.78 706.928 359.312 707.601 359.851 708.289C359.499 708.023 359.163 707.749 358.834 707.452C358.529 707.131 358.193 706.842 357.935 706.49C357.356 705.817 356.902 705.051 356.503 704.261C355.776 702.649 355.369 700.819 355.729 699.082Z" fill="#F18A77"/>
<path d="M353.733 701.098C353.733 701.864 353.819 702.615 353.928 703.358C354.046 704.094 354.187 704.829 354.406 705.541C354.617 706.253 354.851 706.957 355.157 707.645C355.446 708.334 355.79 709.006 356.142 709.695C355.61 709.139 355.117 708.529 354.75 707.849C354.351 707.184 354.069 706.448 353.842 705.705C353.42 704.203 353.295 702.592 353.733 701.098Z" fill="#F18A77"/>
<path d="M374.581 694.058C374.581 694.058 379.665 699.948 379.939 701.52C380.213 703.093 379.947 704.172 378.492 704.532C378.492 704.532 378.492 703.969 378.5 703.265C378.508 702.78 378.515 702.224 378.531 701.732C378.539 701.403 378.296 700.879 377.929 700.277C377.115 698.962 375.457 697.437 374.628 696.522C374.299 696.162 374.19 695.841 374.19 695.755C374.19 695.755 373.783 694.66 374.581 694.058Z" fill="#F18A77"/>
<path d="M375.286 717.236C375.286 717.236 383.398 717.424 388.068 716.681C392.738 715.938 399.489 712.543 403.259 710.11L414.712 702.256C416.894 700.739 418.091 699.909 417.356 700.394L405.473 706.402C405.465 706.402 405.465 706.41 405.458 706.41C405.184 706.566 391.588 714.217 387.872 714.725C387.716 714.749 374.864 716.579 373.15 716.126L365.57 715.695C365.578 715.703 370.06 717.119 375.286 717.236Z" fill="#F18A77"/>
<path d="M428.509 682.012C428.509 682.012 418.629 678.507 410.9 682.012L412.238 679.673C412.238 679.673 423.51 677.561 427.797 680.135C427.797 680.135 428.423 681.128 428.509 682.012Z" fill="#F18A77"/>
<path d="M425.922 643.649C425.922 643.649 426.931 644.36 427.001 645.205C427.064 645.847 428.503 645.463 429.395 644.939C429.755 644.728 429.794 644.22 429.473 643.961C428.832 643.445 427.776 642.694 427.158 642.804C426.227 642.952 425.922 643.649 425.922 643.649Z" fill="#373737"/>
<path d="M367.795 720.372L369.704 716.742C369.704 716.742 382.423 718.542 391.583 715.89L389.894 719.856C389.886 719.864 370.001 721.17 367.795 720.372Z" fill="#F6A457"/>
<path d="M325.156 875.651C329.201 876.778 333.284 877.631 337.391 878.295C341.498 878.937 345.636 879.351 349.774 879.453L352.879 879.5L355.977 879.359C357.018 879.351 358.042 879.211 359.067 879.109L360.608 878.945C361.124 878.913 361.633 878.827 362.141 878.733L365.208 878.209C366.225 878.022 367.218 877.717 368.235 877.482L369.753 877.114C370.253 876.973 370.738 876.778 371.231 876.621C372.217 876.285 373.218 875.964 374.219 875.644C373.281 876.113 372.342 876.574 371.388 877.028C370.911 877.255 370.433 877.49 369.948 877.693L368.454 878.217C367.453 878.546 366.459 878.929 365.443 879.211L362.353 879.938C358.199 880.752 353.951 881.166 349.719 881.01C345.487 880.869 341.279 880.376 337.148 879.484C333.049 878.593 328.989 877.38 325.156 875.651Z" fill="#2D2C2C"/>
<path d="M349.688 869.503C354.303 869.456 358.832 869.339 363.338 868.87L365.028 868.697L366.702 868.455C367.828 868.322 368.931 868.087 370.05 867.9C372.279 867.477 374.454 866.875 376.691 866.249C374.728 867.469 372.576 868.424 370.347 869.081C368.11 869.738 365.818 870.192 363.502 870.418C361.187 870.63 358.863 870.7 356.548 870.551C354.232 870.418 351.925 870.113 349.688 869.503Z" fill="#2D2C2C"/>
<path d="M352.308 989.603C352.308 989.603 353.231 1009.16 353.716 1010.76C354.201 1012.36 355.304 1016.05 359.732 1017.04C364.159 1018.02 368.204 1018.19 368.204 1018.19L366.858 1022.69L351.01 1020.11C351.01 1020.1 350.548 991.316 352.308 989.603Z" fill="#F18A77"/>
<path d="M311.721 988.648C311.721 988.648 308.983 1007.98 309.413 1010.44C309.843 1012.9 311.134 1017.45 318.448 1018.31C325.762 1019.17 328.038 1017.82 328.038 1017.82L313.715 1022.43L307.324 1017.51V1007.88L311.721 988.648Z" fill="#F18A77"/>
<path d="M352.725 978.52C352.725 978.52 351.387 1013.03 351.614 1013.71C351.794 1014.24 351.489 1018.27 361.08 1019.37C369.27 1020.32 372.078 1014.62 372.727 1012.94C372.837 1012.66 372.86 1012.36 372.813 1012.06C372.422 1009.65 370.49 997.661 370.748 995.354L374.229 1012.37C374.229 1012.37 375.825 1018.64 375.09 1022.08C374.355 1025.53 367.189 1036.74 363.395 1036.78C359.601 1036.83 354.438 1030.2 348.54 1022.2C348.54 1022.2 345.294 1019.8 349.385 1001.42C349.471 1001.03 349.541 1000.62 349.573 1000.21C349.846 996.895 350.746 980.506 352.725 978.52Z" fill="#2D2C2C"/>
<path d="M328.882 978.816C328.882 978.816 328.53 1013.35 328.264 1014.02C328.061 1014.53 328.162 1018.57 318.533 1019.2C310.303 1019.74 307.777 1013.92 307.213 1012.21C307.12 1011.93 307.104 1011.62 307.167 1011.33C307.675 1008.95 310.499 997.106 310.35 994.79L305.727 1011.56C305.727 1011.56 303.826 1017.75 304.389 1021.22C304.953 1024.7 311.571 1036.24 315.357 1036.48C319.143 1036.71 324.626 1030.34 330.908 1022.64C330.908 1022.64 334.272 1020.39 331.08 1001.85C331.01 1001.45 330.971 1001.03 330.955 1000.63C330.861 997.309 330.759 980.889 328.882 978.816Z" fill="#2D2C2C"/>
<path d="M353.422 978.518C353.797 979.167 354.321 979.652 354.877 980.051C355.448 980.442 356.074 980.739 356.739 980.958C357.404 981.193 358.092 981.373 358.78 981.49C359.469 981.584 360.188 981.654 360.885 981.404C360.337 981.96 359.484 982.093 358.733 982.1C357.959 982.1 357.208 981.936 356.481 981.694C355.753 981.435 355.049 981.06 354.486 980.512C353.93 979.98 353.484 979.284 353.422 978.518Z" fill="#F18A77"/>
<path d="M327.73 978.518C327.668 979.276 327.214 979.98 326.659 980.52C326.095 981.068 325.391 981.443 324.664 981.701C323.936 981.944 323.185 982.108 322.411 982.108C321.66 982.1 320.807 981.967 320.26 981.412C320.964 981.67 321.676 981.592 322.364 981.498C323.052 981.381 323.741 981.193 324.406 980.966C325.071 980.747 325.696 980.45 326.267 980.059C326.831 979.652 327.355 979.167 327.73 978.518Z" fill="#F18A77"/>
<path d="M313.019 903.125C312.878 910.642 312.347 948.879 316.094 961.575C316.172 961.825 316.187 962.084 316.148 962.35L313.137 978.519C313.137 978.519 313.927 968.06 313.95 967.184C313.974 966.253 311.65 946.36 311.65 946.36C311.65 946.36 308.208 909.07 308.991 906.285C309.03 906.152 309.038 906.011 309.038 905.878V902.961C309.038 901.717 310.266 900.856 311.431 901.263L311.815 901.396C312.558 901.662 313.035 902.35 313.019 903.125Z" fill="#F18A77"/>
<path d="M351.561 903.047C351.561 903.047 352.64 957.578 353.665 964.118C353.837 965.221 353.54 964.595 353.415 965.659C353.266 966.942 352.797 963.602 352.617 961.364C352.437 959.127 350.927 939.469 350.927 939.469L348.307 902.233L351.561 903.047Z" fill="#F18A77"/>
<path d="M340.166 674.424C341.402 673.352 342.873 672.586 344.414 672.022C345.963 671.459 347.605 671.131 349.279 671.091C350.953 671.021 352.643 671.35 354.192 671.952C355.772 672.507 357.125 673.563 358.236 674.721C356.726 674.087 355.334 673.415 353.824 673.117C352.338 672.781 350.828 672.601 349.311 672.656C347.793 672.695 346.268 672.875 344.75 673.188C343.225 673.516 341.707 673.923 340.166 674.424Z" fill="#F6A456"/>
<path d="M367.596 1032.62C368.979 1030.93 369.631 1029.18 369.053 1028.71C368.475 1028.23 366.885 1029.22 365.502 1030.9C364.119 1032.59 363.467 1034.34 364.045 1034.82C364.623 1035.29 366.213 1034.31 367.596 1032.62Z" fill="#373737"/>
<path d="M328.785 1021.68C330.168 1019.99 330.821 1018.24 330.242 1017.77C329.664 1017.29 328.075 1018.28 326.692 1019.96C325.309 1021.65 324.656 1023.4 325.234 1023.88C325.812 1024.35 327.402 1023.37 328.785 1021.68Z" fill="#373737"/>
<path d="M432.498 599.109V608.371L452.997 625.419L464.445 622.466L463.513 608.774L460.585 610.116L432.498 599.109Z" fill="#F4A392" stroke="#F4A392" stroke-miterlimit="10"/>
<path d="M432.498 605.416C432.498 605.416 438.605 612.003 443.784 612.844C448.962 613.825 452.546 612.564 458.388 611.863C464.23 611.162 462.239 605.276 462.239 605.276L461.442 608.079L454.804 606.677L433.427 600.651L432.631 599.109L432.498 605.416Z" fill="#F18A77" stroke="#F18A77" stroke-miterlimit="10"/>
<path d="M424.309 557.463C424.041 557.995 424.041 558.527 424.041 559.192C424.041 560.389 424.175 562.649 424.309 565.574C424.71 573.686 425.38 586.318 426.317 590.44C427.522 595.891 437.028 603.604 440.911 607.992C441.982 609.188 443.455 609.853 444.928 609.853L460.459 610.385C461.53 610.385 462.468 609.853 463.003 609.055L469.965 597.62C470.501 596.822 471.036 596.024 471.572 595.36C473.179 593.631 474.116 591.37 474.384 588.977L476.66 559.325C476.66 558.66 476.66 557.995 476.392 557.33C473.313 549.219 449.212 494.835 424.309 557.463Z" fill="#F4A392"/>
<path d="M425.338 582.196C425.338 582.196 417.465 580.993 417.465 568.165C417.465 555.337 425.921 568.165 425.921 568.165L425.338 582.196Z" fill="#F4A392" stroke="#F4A392" stroke-miterlimit="10"/>
<path d="M471.286 619.07C471.286 619.07 475.312 625.184 475.715 626.646C476.118 628.108 456.925 655.487 456.925 655.487L418.404 622.127L424.31 615.083L424.176 616.944L440.147 633.025C443.637 635.817 443.906 635.684 446.053 634.886L448.872 631.829C449.677 631.165 450.751 630.367 451.959 629.304L453.435 627.576L457.327 633.557C458.401 635.152 460.012 635.019 461.891 634.62C464.441 634.089 465.783 631.032 466.186 630.102C466.857 628.64 471.286 619.07 471.286 619.07Z" fill="#D0E0F1" stroke="#D0E0F1" stroke-miterlimit="10"/>
<path d="M424.052 616.962C423.648 617.367 434.952 628.452 436.029 628.993C437.106 629.669 443.162 635.887 444.642 635.752C446.526 635.482 453.39 628.182 453.39 628.182L457.158 633.724C458.235 635.347 460.523 635.887 462.272 635.076C464.022 634.13 464.694 633.184 466.175 631.156C466.309 631.021 466.444 630.75 466.444 630.615L471.962 619.666" stroke="#BFCEDD" stroke-width="2" stroke-miterlimit="10" stroke-linecap="round" stroke-linejoin="round"/>
<path d="M426.8 617.365L442.407 633.934C443.474 635.039 445.341 635.177 446.408 633.934L452.545 627.721C453.478 626.754 453.345 625.235 452.278 624.407L432.135 609.081C430.668 607.976 428.667 608.528 427.867 610.185L426.133 613.913C425.732 615.018 425.866 616.399 426.8 617.365Z" fill="#E3ECF9" stroke="#E3ECF9" stroke-miterlimit="10"/>
<path d="M394.112 1022.61C398.079 1023.95 412.444 1028.35 422.841 1023.41C425.851 1021.94 426.262 1018.74 425.714 1015.67C425.167 1013 426.809 1007.26 422.431 1000.86C420.789 998.454 401.363 1005.26 395.617 1001.26C394.933 1000.86 394.386 1002.19 394.249 1002.86C393.291 1006.73 391.102 1015.94 392.607 1021.01C392.744 1021.68 393.291 1022.35 394.112 1022.61Z" fill="#212020" stroke="#212020" stroke-miterlimit="10"/>
<path d="M451.442 1006.8C451.442 1006.8 446.875 1021.89 451.442 1022.28C456.01 1022.67 498.595 1025.53 510.416 1022.28C522.372 1019.03 493.49 1006.02 491.609 1009.28C491.609 1009.28 478.175 1008.5 478.31 1003.55C478.444 998.61 452.92 1000.82 452.92 1000.82L451.442 1006.8Z" fill="#212020" stroke="#212020" stroke-miterlimit="10"/>
<path d="M414.36 779.517C414.36 779.517 479.388 783.67 493.093 782.866C494.302 782.732 497.124 782.732 497.527 782.598C501.692 780.856 487.181 857.225 483.554 891.256C480.195 922.071 478.448 989.195 478.179 1001.52C478.179 1002.99 477.239 1004.2 475.761 1004.87C472.939 1006.08 467.162 1007.68 456.682 1006.48C454.801 1006.21 453.189 1004.87 453.054 1003.13C451.173 987.587 442.978 915.774 451.577 895.275L456.279 817.567C456.279 817.567 438.275 899.027 435.588 900.366C435.588 900.366 422.958 976.735 421.884 997.904C421.749 999.779 420.137 1001.25 418.122 1001.39C411.941 1001.79 399.849 1002.46 395.415 1001.52C389.369 1000.32 395.684 915.506 404.82 895.275C404.82 895.007 412.076 792.111 414.36 779.517Z" fill="#2F2F30" stroke="#2F2F30" stroke-miterlimit="10"/>
<path d="M417.314 784.097C427.298 785.138 478.28 790.208 493.988 786.828C494.919 786.698 495.452 785.918 495.452 785.007V784.877C495.452 783.837 494.653 783.057 493.588 783.057L417.581 780.457C416.516 780.457 415.584 781.237 415.584 782.277C415.717 783.187 416.383 783.967 417.314 784.097Z" fill="#222121" stroke="#222121" stroke-width="0.5" stroke-miterlimit="10" stroke-linecap="round" stroke-linejoin="round"/>
<path d="M590.962 737.535C586.525 739.943 584.642 739.007 579.935 745.16C577.649 752.25 579.935 755.461 586.928 760.678C593.786 765.895 613.688 764.691 616.512 763.22C618.126 760.812 614.764 760.946 612.747 760.277C610.864 759.608 603.872 758.939 603.872 758.939C603.872 758.939 611.806 758.805 617.05 758.404C622.16 758.136 624.312 756.263 623.371 754.391C621.891 752.785 617.319 753.855 613.016 753.989C612.478 753.989 611.94 753.989 611.402 753.989C607.906 753.855 606.023 753.588 606.023 753.588C606.023 753.588 614.764 752.518 620.681 752.25C624.85 751.849 626.329 750.511 626.867 749.307C627.27 748.371 626.732 747.301 625.657 747.167C623.64 746.899 620.278 747.167 617.723 746.899C614.226 746.498 608.713 746.498 608.713 746.498C608.713 746.498 617.588 745.026 622.429 744.224C626.195 743.421 625.791 743.421 626.329 741.816C625.926 739.943 623.639 739.542 620.009 739.675C616.378 739.809 611.402 740.478 607.234 740.077C603.065 739.675 601.451 739.14 601.451 739.14C601.451 739.14 607.503 735.395 608.309 731.783C609.251 728.171 605.082 728.305 603.065 729.642C600.779 730.98 593.383 736.197 590.962 737.535Z" fill="#F4A492"/>
<path d="M424.041 782.199C424.041 782.199 416.491 885.234 415.952 890.861C415.413 896.488 411.233 905.331 407.593 920.874C404.358 934.808 402.875 987.866 402.605 998.853C402.605 999.925 401.931 1002.34 400.718 1002.2L395.999 1002.07C394.651 1002.07 393.977 1000.06 393.977 999.121L393.303 994.432L393.033 982.373L395.864 940.167L399.639 914.576L404.897 895.148L405.706 885.635L413.93 780.457L424.041 782.199Z" fill="#212020"/>
<path d="M408.734 799.225C405.84 795.068 406.629 793.057 400.052 789.302C392.817 787.827 390.054 790.509 385.713 798.018C381.373 805.394 384.924 824.973 386.634 827.52C389.265 828.861 388.607 825.509 389.134 823.363C389.528 821.352 389.397 814.379 389.397 814.379C389.397 814.379 390.449 822.291 391.501 827.252C392.422 832.214 394.395 834.225 396.237 833.019C397.552 831.409 395.974 826.984 395.448 822.693C395.316 822.156 395.316 821.62 395.185 821.084C394.922 817.597 394.922 815.72 394.922 815.72C394.922 815.72 397.026 824.168 397.816 830.068C398.736 834.091 400.183 835.432 401.367 835.835C402.288 836.103 403.209 835.432 403.34 834.494C403.472 832.482 402.814 829.264 402.814 826.582C402.814 823.095 402.288 817.597 402.288 817.597C402.288 817.597 404.656 826.179 405.971 830.873C407.155 834.494 407.155 834.091 408.734 834.36C410.575 833.823 410.707 831.543 410.181 827.789C409.654 824.302 408.471 819.474 408.339 815.183C408.207 811.026 407.155 810.087 407.155 810.087C407.155 810.087 409.654 820.413 413.338 820.815C417.021 820.279 415.311 815.049 414.258 812.233C413.338 809.551 410.312 801.371 408.734 799.225Z" fill="#F4A492"/>
<path d="M452.23 606.627C455.862 606.627 458.807 605.785 458.807 604.747C458.807 603.71 455.862 602.868 452.23 602.868C448.597 602.868 445.652 603.71 445.652 604.747C445.652 605.785 448.597 606.627 452.23 606.627Z" fill="#EF978A" stroke="#EF978A" stroke-miterlimit="10"/>
<path d="M396.704 801.363C402.825 800.916 407.686 799.179 407.562 797.483C407.438 795.787 402.376 794.774 396.256 795.221C390.135 795.668 385.274 797.405 385.398 799.101C385.522 800.797 390.584 801.81 396.704 801.363Z" fill="#F18A77"/>
<path d="M583.395 749.094C583.776 745.194 583.429 741.968 582.619 741.889C581.81 741.81 580.844 744.907 580.463 748.808C580.082 752.708 580.43 755.934 581.239 756.013C582.049 756.092 583.014 752.995 583.395 749.094Z" fill="#F18A77"/>
<path d="M418.667 620.339C419.335 619.537 424.948 613.527 424.013 614.195C414.524 619.938 387.528 637.3 385.524 640.773C383.653 643.978 376.436 695.397 378.307 723.577C380.044 749.621 383.252 791.023 383.653 797.3C383.653 797.834 384.054 798.102 384.588 798.235C387.929 798.369 400.492 798.769 406.505 794.496C406.773 794.362 406.906 793.961 406.906 793.694C406.639 786.349 403.432 702.208 406.505 698.736C409.446 695.264 409.312 769.387 409.178 777.935C409.178 778.335 409.446 778.736 409.98 778.87C417.598 780.205 477.336 790.222 499.921 781.274C500.322 781.14 500.589 780.739 500.456 780.339C499.788 773.661 495.377 721.441 499.921 701.14C500.055 700.339 501.258 700.072 501.659 700.873C506.336 709.02 523.309 738.803 525.981 740.138C529.456 741.875 569.682 758.569 579.572 759.237C580.24 759.237 580.775 758.569 580.507 757.901C579.305 754.562 576.632 744.946 583.447 739.07C583.982 738.669 583.848 737.734 583.18 737.467L544.023 718.769C543.756 718.636 543.622 718.502 543.622 718.235C541.217 712.626 509.276 637.3 507.405 636.499C506.202 635.965 504.198 634.629 503.53 634.362C503.396 634.362 503.129 634.229 502.995 634.095L471.322 617.801C470.52 617.401 471.856 619.27 472.391 620.072L475.866 625.547C476.4 626.482 476.4 627.684 475.866 628.619L458.225 655.33C457.423 656.666 455.552 656.933 454.349 655.865L419.068 624.345C417.865 623.277 417.731 621.541 418.667 620.339Z" fill="#FBC172" stroke="#FBC172" stroke-miterlimit="10"/>
<path d="M454.325 625.409C454.325 625.409 463.418 614.144 465.589 614.144C467.76 614.144 471.831 614.283 470.881 619.011C470.203 622.349 465.725 630.416 462.603 633.893C461.518 635.145 459.618 635.145 458.532 633.754C456.497 630.972 453.24 626.8 454.325 625.409Z" fill="#E2ECF9" stroke="#E3ECF9" stroke-miterlimit="10"/>
<path d="M463.803 542.14C464.861 541.742 465.919 542.008 466.845 542.67C468.696 544.261 471.87 547.045 471.737 548.769C471.605 550.757 472.927 560.7 473.456 564.942C473.589 565.87 474.514 566.4 475.44 566.135L477.423 564.147C477.556 564.014 477.688 564.014 477.82 563.882C478.349 563.616 479.01 563.086 479.01 562.556C479.539 557.253 481.787 530.739 468.299 527.292C453.489 523.448 446.48 522.387 443.967 523.315C443.703 523.448 443.571 523.58 443.571 523.58C443.571 524.774 442.116 525.569 440.794 525.569C437.356 525.702 435.372 525.834 432.331 527.292C427.438 529.546 422.148 526.232 421.223 551.553C421.223 551.818 421.223 551.95 421.223 552.215L422.677 561.628C422.942 562.953 423.603 564.147 424.661 564.942C425.586 565.737 426.512 566.798 426.777 568.654C427.173 572.101 427.306 551.42 427.306 551.42C427.306 551.42 427.57 548.503 429.554 548.503C431.537 548.503 452.034 548.769 462.216 542.67C462.348 542.67 462.348 542.538 462.481 542.538L463.803 542.14Z" fill="#2F2F30" stroke="#2F2F30" stroke-miterlimit="10"/>
<path d="M474.425 582.196C474.425 582.196 482.298 580.993 482.298 568.165C482.298 555.337 473.842 568.165 473.842 568.165L474.425 582.196Z" fill="#F4A392" stroke="#F4A392" stroke-miterlimit="10"/>
<path d="M447.532 562.662V559.546C447.532 559.546 441.382 555.54 431.877 559.546L430.619 563.403C430.759 563.403 436.63 559.843 447.532 562.662Z" fill="#2F2F30" stroke="#2F2F30" stroke-miterlimit="10"/>
<path d="M455.049 562.662V559.546C455.049 559.546 460.857 555.54 469.834 559.546L471.022 563.403C471.022 563.403 465.478 559.843 455.049 562.662Z" fill="#2F2F30" stroke="#2F2F30" stroke-miterlimit="10"/>
<path d="M423.102 571.86L422.668 574.679C422.668 574.679 417.024 573.218 423.102 571.86Z" fill="#F18A77" stroke="#F18A77" stroke-miterlimit="10" stroke-linecap="round" stroke-linejoin="round"/>
<path d="M476.821 573.74L476.663 570.921C476.505 570.921 482.969 571.756 476.821 573.74Z" fill="#F18A77" stroke="#F18A77" stroke-miterlimit="10" stroke-linecap="round" stroke-linejoin="round"/>
<path d="M444.317 571.303C444.581 571.169 444.713 570.768 444.713 570.366C444.449 569.029 443.655 565.552 441.672 565.418C441.011 565.418 440.482 565.284 439.821 565.284C437.706 565.284 435.855 565.15 433.872 568.093L432.55 570.366C432.418 570.634 432.55 571.035 432.814 571.169C434.401 572.105 439.689 574.245 444.317 571.303Z" fill="#FAEFEF" stroke="#2F2F31" stroke-width="0.2" stroke-miterlimit="10"/>
<path d="M432.498 570.921C432.498 570.921 434.755 566.71 435.817 565.984C436.88 565.403 441.659 564.822 442.987 565.839C444.448 566.855 444.713 570.631 444.713 570.631" stroke="#2F2F31" stroke-width="0.2" stroke-miterlimit="10" stroke-linecap="round" stroke-linejoin="round"/>
<path d="M439.544 570.921C440.842 570.921 441.893 569.869 441.893 568.572C441.893 567.274 440.842 566.223 439.544 566.223C438.247 566.223 437.195 567.274 437.195 568.572C437.195 569.869 438.247 570.921 439.544 570.921Z" fill="#423630" stroke="#423630" stroke-width="0.25" stroke-miterlimit="10"/>
<path d="M440.016 569.981C440.535 569.981 440.955 569.56 440.955 569.041C440.955 568.522 440.535 568.102 440.016 568.102C439.497 568.102 439.076 568.522 439.076 569.041C439.076 569.56 439.497 569.981 440.016 569.981Z" fill="#2F2F31" stroke="#2F2F31" stroke-miterlimit="10"/>
<path d="M440.955 568.102C441.474 568.102 441.895 567.891 441.895 567.632C441.895 567.372 441.474 567.162 440.955 567.162C440.436 567.162 440.016 567.372 440.016 567.632C440.016 567.891 440.436 568.102 440.955 568.102Z" fill="#FAEFEF"/>
<path d="M437.665 569.982C437.925 569.982 438.135 569.771 438.135 569.512C438.135 569.252 437.925 569.042 437.665 569.042C437.406 569.042 437.195 569.252 437.195 569.512C437.195 569.771 437.406 569.982 437.665 569.982Z" fill="#FAEFEF"/>
<path d="M457.324 571.303C457.06 571.169 456.928 570.768 456.928 570.366C457.192 569.029 457.985 565.552 459.969 565.418C460.63 565.418 461.158 565.284 461.819 565.284C463.935 565.284 465.786 565.15 467.769 568.093L469.091 570.366C469.223 570.634 469.091 571.035 468.827 571.169C467.24 572.105 461.952 574.245 457.324 571.303Z" fill="#FAEFEF" stroke="#2F2F31" stroke-width="0.2" stroke-miterlimit="10"/>
<path d="M469.143 569.981C469.143 569.981 466.886 566.472 465.824 565.867C464.761 565.383 459.982 564.899 458.654 565.746C457.193 566.593 456.928 569.739 456.928 569.739" stroke="#2F2F31" stroke-width="0.2" stroke-miterlimit="10" stroke-linecap="round" stroke-linejoin="round"/>
<path d="M462.097 570.921C463.394 570.921 464.446 569.869 464.446 568.572C464.446 567.274 463.394 566.223 462.097 566.223C460.8 566.223 459.748 567.274 459.748 568.572C459.748 569.869 460.8 570.921 462.097 570.921Z" fill="#423630" stroke="#423630" stroke-width="0.25" stroke-miterlimit="10"/>
<path d="M461.627 569.041C462.146 569.041 462.567 568.621 462.567 568.102C462.567 567.583 462.146 567.162 461.627 567.162C461.108 567.162 460.688 567.583 460.688 568.102C460.688 568.621 461.108 569.041 461.627 569.041Z" fill="#2F2F31" stroke="#2F2F31" stroke-miterlimit="10"/>
<path d="M463.506 568.102C464.025 568.102 464.446 567.681 464.446 567.162C464.446 566.643 464.025 566.223 463.506 566.223C462.987 566.223 462.566 566.643 462.566 567.162C462.566 567.681 462.987 568.102 463.506 568.102Z" fill="#FAEFEF"/>
<path d="M461.157 569.982C461.417 569.982 461.627 569.771 461.627 569.512C461.627 569.252 461.417 569.042 461.157 569.042C460.898 569.042 460.688 569.252 460.688 569.512C460.688 569.771 460.898 569.982 461.157 569.982Z" fill="#FAEFEF"/>
<path d="M441.895 597.98C441.895 597.98 453.367 604.07 463.506 595.351" stroke="#D85843" stroke-width="0.5" stroke-miterlimit="10" stroke-linecap="round" stroke-linejoin="round"/>
<path d="M463.562 591.479C463.964 591.479 464.366 591.479 464.767 591.479C465.169 591.479 465.571 591.747 465.972 591.881C466.374 592.015 466.776 592.283 467.043 592.684C467.311 592.952 467.579 593.488 467.579 593.889C467.311 593.488 467.043 593.22 466.776 593.086C466.508 592.952 466.106 592.684 465.838 592.551C465.035 592.149 464.366 591.881 463.562 591.479Z" fill="#D85843"/>
<path d="M444.713 598.459C444.713 598.459 456.727 596.568 460.318 596.298C462.251 596.163 456.037 598.054 454.379 598.459C454.241 598.459 454.103 598.594 453.965 598.594C452.722 598.865 446.094 599.675 444.713 598.459Z" fill="#F0988B"/>
<path d="M448.034 569.791C448.168 574.343 448.168 578.895 448.168 583.447C448.168 583.581 448.168 583.581 448.034 583.581C447.231 583.714 446.562 583.982 445.892 584.25C445.624 584.384 445.223 584.652 445.223 584.919C445.223 585.321 445.223 585.723 445.357 585.99C445.624 586.66 446.294 587.061 446.963 587.463C447.633 587.731 448.436 587.999 449.105 588.132C450.578 588.534 452.185 588.534 453.657 588.266C455.13 587.999 456.736 587.463 458.075 586.66C455.398 588.266 452.185 589.07 449.105 588.4C448.302 588.266 447.633 587.999 446.829 587.731C446.16 587.463 445.357 586.928 445.089 586.124C444.955 585.723 444.955 585.321 444.955 584.919C445.089 584.384 445.491 584.116 445.758 583.982C446.428 583.581 447.231 583.447 448.034 583.313L447.9 583.447C447.9 578.895 447.9 574.343 448.034 569.791Z" fill="#D85843"/>
<path d="M450.352 585.954C451.39 585.954 452.231 585.744 452.231 585.484C452.231 585.225 451.39 585.015 450.352 585.015C449.314 585.015 448.473 585.225 448.473 585.484C448.473 585.744 449.314 585.954 450.352 585.954Z" fill="#EF978A" stroke="#EF978A" stroke-miterlimit="10"/>
<path d="M427.834 556.826C427.834 556.826 429.057 574.81 429.873 579.207C430.688 583.603 428.921 589.198 434.085 595.193C439.25 601.187 442.103 606.649 443.734 607.449C445.365 608.248 457.867 610.379 457.867 610.379C457.867 610.379 444.685 610.513 442.647 609.447C440.744 608.381 427.698 595.059 427.155 592.795C427.155 592.795 426.611 591.729 426.068 589.864C425.388 587.333 424.98 583.07 424.98 578.674L425.796 571.08C425.66 570.814 425.524 570.015 425.796 570.015C426.475 570.015 427.019 570.281 427.155 569.748C427.155 569.748 427.562 559.091 427.562 558.824C427.562 558.025 427.834 556.826 427.834 556.826Z" fill="#F18A77"/>
<path d="M432.904 549.455C432.904 549.455 454.005 548.67 462.391 543.833C463.068 543.44 463.879 543.048 464.556 542.917C464.961 542.787 465.232 542.656 465.638 542.787C466.855 543.048 467.937 543.702 469.29 545.14C470.642 546.578 470.507 546.709 470.913 547.232C471.319 547.755 470.507 548.147 469.966 548.147C467.802 548.409 461.174 550.239 452.923 550.239C442.778 550.37 433.31 549.193 432.498 549.193" fill="#F18A77"/>
<path d="M417.464 619.781C417.464 619.781 386.828 637.113 385.514 641.646C384.199 646.179 380.123 679.642 380.123 679.642L378.939 703.773V728.17L383.936 796.43C383.936 796.43 393.929 796.03 394.06 793.764C394.323 791.098 391.825 772.566 391.036 766.033C390.904 764.967 390.51 763.9 390.51 762.834C389.984 750.568 387.091 674.976 390.641 665.777C394.586 655.911 407.34 624.314 417.464 619.781Z" fill="#F9B76C" stroke="#F9B76C" stroke-miterlimit="10"/>
<path d="M504.047 690.47C505.254 689.001 508.069 695.412 508.874 697.148C514.237 708.1 523.22 725.863 526.572 730.137C530.326 734.812 570.683 749.771 578.326 752.576C579.13 752.843 579.667 753.51 579.935 754.312C580.471 756.315 578.326 759.521 576.315 758.719L526.036 740.154C525.499 739.887 524.561 738.685 524.293 738.151L500.561 698.751C500.427 698.483 500.293 697.549 500.159 696.614C500.025 693.942 501.5 691.405 504.047 690.47Z" fill="#F6A457" stroke="#F9B76C" stroke-miterlimit="10"/>
<path d="M536.985 720.171C536.985 720.171 534.382 722.768 533.211 726.086C532.43 728.395 534.382 725.221 536.985 723.489C537.376 723.201 537.766 723.056 538.157 722.768C540.369 721.469 540.239 721.036 542.712 719.449C544.925 717.862 541.15 718.295 537.766 719.738L536.985 720.171Z" fill="#F9B76C" stroke="#F9B76C" stroke-miterlimit="10"/>
<path d="M471.328 619.904C471.328 619.904 471.328 617.224 472.677 617.894C474.295 618.698 477.398 622.85 480.23 628.075C480.5 628.61 480.5 629.28 480.095 629.816L458.109 661.563C457.704 662.099 456.895 662.233 456.355 661.831L421.42 633.969L415.755 629.012C414.811 628.209 414.271 627.003 414.946 626.065C415.485 625.262 416.295 624.056 417.374 622.315C418.858 619.903 423.444 615.751 425.062 614.144L423.039 616.689L418.588 621.913C418.183 622.449 418.183 623.252 418.723 623.788L455.411 656.205C456.355 657.142 457.165 656.874 457.974 655.803L476.049 628.61C476.453 627.941 476.723 627.539 476.318 626.869L473.621 622.449L471.328 619.904Z" fill="#F6A456"/>
<path d="M407.314 702.267L408.516 773.709C408.649 776.518 407.448 779.194 410.252 779.729C421.336 781.736 452.453 785.75 469.013 785.081C470.348 785.081 470.482 783.074 469.146 782.806L421.47 775.716C418.933 775.314 416.929 773.308 416.796 770.632L410.786 701.331C410.653 699.859 409.05 699.19 407.848 699.993C406.78 700.662 407.18 700.929 407.314 702.267Z" fill="#F6A456"/>
<path d="M464.916 579.377C467.77 579.377 470.084 578.746 470.084 577.968C470.084 577.19 467.77 576.559 464.916 576.559C462.062 576.559 459.748 577.19 459.748 577.968C459.748 578.746 462.062 579.377 464.916 579.377Z" fill="#EF978A" stroke="#EF978A" stroke-miterlimit="10"/>
<path d="M438.136 580.317C441.249 580.317 443.774 579.686 443.774 578.907C443.774 578.129 441.249 577.498 438.136 577.498C435.022 577.498 432.498 578.129 432.498 578.907C432.498 579.686 435.022 580.317 438.136 580.317Z" fill="#EF978A" stroke="#EF978A" stroke-miterlimit="10"/>
<path d="M430.619 542.182C430.619 542.182 432.077 534.019 445.99 532.912C459.903 531.805 458.18 530.283 463.878 532.912C469.31 535.541 434.064 550.345 430.619 542.182Z" fill="#3F3F3F" stroke="#3F3F3F" stroke-width="0.5" stroke-miterlimit="10" stroke-linecap="round" stroke-linejoin="round"/>
<path d="M473.086 546.882C473.847 547.822 474.354 549.165 474.481 550.374L475.749 562.464V549.3L477.524 562.464L478.539 547.285C478.539 547.285 476.383 535.329 470.803 533.448C469.281 532.911 467.886 534.389 468.266 536.001C468.647 538.687 469.915 542.852 473.086 546.882Z" fill="#3F3F3F" stroke="#3F3F3F" stroke-width="0.5" stroke-miterlimit="10" stroke-linecap="round" stroke-linejoin="round"/>
<path d="M589.416 750.389C589.416 750.389 592.267 751.597 594.974 753.208C598.395 755.221 600.248 756.966 600.248 756.966C600.248 756.966 600.533 753.611 600.675 749.718C600.818 745.825 599.963 742.872 599.963 742.872C599.963 742.872 597.112 745.557 593.977 747.973C591.839 749.718 589.416 750.389 589.416 750.389Z" fill="#F18B77"/>
</svg>
