<svg width="20" height="18" viewBox="0 0 20 18" fill="none" xmlns="http://www.w3.org/2000/svg">
<path fill-rule="evenodd" clip-rule="evenodd" d="M0 3.85386C0 2.14828 1.34315 0.765625 3 0.765625H17C18.6569 0.765625 20 2.14828 20 3.85386V14.148C20 15.8536 18.6569 17.2362 17 17.2362H3C1.34315 17.2362 0 15.8536 0 14.148V3.85386ZM3 2.30974H17C17.6497 2.30974 18.203 2.73501 18.4114 3.3299L10.6934 8.6266C10.2735 8.91475 9.72651 8.91475 9.30663 8.6266L1.58857 3.32989C1.79701 2.735 2.35026 2.30974 3 2.30974ZM1.5 5.12491V14.148C1.5 15.0008 2.17157 15.6921 3 15.6921H17C17.8284 15.6921 18.5 15.0008 18.5 14.148V5.12492L11.5254 9.91138C10.6017 10.5453 9.39831 10.5453 8.47458 9.91138L1.5 5.12491Z" fill="#CCCCCC"/>
</svg>
