<svg width="1440" height="191" viewBox="0 0 1440 191" fill="none" xmlns="http://www.w3.org/2000/svg">
<path fill-rule="evenodd" clip-rule="evenodd" d="M1440 127.17L1380 106.057C1320 84.9434 1200 42.2262 1080 38.7892C960 35.3522 840 70.7044 720 74.1414C600 77.5784 480 49.5913 360 63.8303C240 77.5784 120 134.535 60 162.522L0 191V-2.38419e-06H60C120 -2.38419e-06 240 -2.38419e-06 360 -2.38419e-06C480 -2.38419e-06 600 -2.38419e-06 720 -2.38419e-06C840 -2.38419e-06 960 -2.38419e-06 1080 -2.38419e-06C1200 -2.38419e-06 1320 -2.38419e-06 1380 -2.38419e-06H1440V127.17Z" fill="#F9F9F9"/>
</svg>
